<svg viewBox="0 0 382 249" fill="none" xmlns="http://www.w3.org/2000/svg">
<path class="first" d="M14.2663 149.473L14.2515 149.572L14.2611 149.573L14.2663 149.473ZM10.4494 131.738L10.5453 131.766L10.5454 131.766L10.4494 131.738ZM16.7562 116.142L16.6663 116.098L16.666 116.099L16.7562 116.142ZM21.0028 105.337L20.9064 105.31L20.9063 105.31L21.0028 105.337ZM23.6343 90.9425L23.7334 90.956L23.7334 90.9559L23.6343 90.9425ZM25.6416 78.5953L25.5444 78.572L25.5441 78.5731L25.6416 78.5953ZM27.5953 74.2101L27.6479 74.2955L27.6543 74.2908L27.5953 74.2101ZM30.5188 84.9479L30.421 84.9269L30.4206 84.9292L30.5188 84.9479ZM29.435 91.8807L29.3357 91.8688L29.3356 91.8697L29.435 91.8807ZM29.1669 95.625L29.069 95.6455L29.1087 95.8348L29.2402 95.693L29.1669 95.625ZM32.6938 92.3465L32.7544 92.4262L32.7581 92.4231L32.6938 92.3465ZM34.4451 90.8774L34.5094 90.954L34.5106 90.953L34.4451 90.8774ZM45.6526 86.0832L45.7506 86.0626L45.7493 86.0578L45.6526 86.0832ZM44.1471 88.267L44.0773 88.1953L44.0762 88.1965L44.1471 88.267ZM40.7 91.2414L40.759 91.3222L40.7609 91.3207L40.7 91.2414ZM23.5243 114.387L23.6112 114.436L23.6133 114.432L23.5243 114.387ZM20.9374 119.863L20.8462 119.822L20.8459 119.822L20.9374 119.863ZM17.051 129.874L16.9565 129.841L16.9563 129.842L17.051 129.874ZM14.9805 139.409L14.8806 139.403L14.8805 139.406L14.9805 139.409ZM17.9519 143.527L17.9505 143.627L17.9616 143.627L17.9725 143.625L17.9519 143.527ZM29.3268 134.052L29.2499 133.988L29.2498 133.988L29.3268 134.052ZM43.2588 113.024L43.3466 113.072L43.3473 113.07L43.2588 113.024ZM61.4958 59.0985L61.3972 59.0822L61.3972 59.0824L61.4958 59.0985ZM62.1257 38.1317L62.224 38.1134L62.2235 38.1112L62.1257 38.1317ZM55.4827 29.7548L55.4959 29.6557L55.4952 29.6556L55.4827 29.7548ZM41.1845 35.3412L41.1289 35.2581L41.1286 35.2583L41.1845 35.3412ZM31.1356 44.0593L31.065 43.9885L31.0647 43.9887L31.1356 44.0593ZM4.34204 84.597L4.36258 84.6949L4.43526 84.6797L4.44167 84.6057L4.34204 84.597ZM1.76378 77.331L1.66811 77.3019L1.66781 77.3029L1.76378 77.331ZM11.6796 58.3912L11.7622 58.4476L11.7622 58.4475L11.6796 58.3912ZM19.999 47.5934L20.0747 47.6586L20.0751 47.6582L19.999 47.5934ZM29.7421 37.6463L29.8084 37.7211L29.8089 37.7207L29.7421 37.6463ZM40.3505 29.7687L40.2995 29.6827L40.2993 29.6828L40.3505 29.7687ZM60.1809 25.8953L60.1469 25.9894L60.1478 25.9897L60.1809 25.8953ZM66.5703 30.7811L66.6571 30.7311L66.6544 30.727L66.5703 30.7811ZM64.6111 75.5436L64.5145 75.5177L64.5145 75.5178L64.6111 75.5436ZM54.428 104.167L54.5192 104.208L54.5192 104.208L54.428 104.167ZM26.0362 144.848L26.0992 144.926L26.0993 144.926L26.0362 144.848ZM17.5896 149.105C16.466 149.34 15.36 149.43 14.2715 149.373L14.2611 149.573C15.3678 149.63 16.491 149.539 17.6306 149.3L17.5896 149.105ZM14.281 149.374C12.9646 149.178 11.9059 148.663 11.0986 147.832C10.2905 147 9.72778 145.845 9.4161 144.36L9.22036 144.401C9.53756 145.913 10.114 147.105 10.9552 147.971C11.7972 148.838 12.8981 149.37 14.2515 149.572L14.281 149.374ZM9.4161 144.36C9.37187 144.149 9.20975 143.149 8.92899 141.354L8.73139 141.385C9.01152 143.176 9.17475 144.184 9.22036 144.401L9.4161 144.36ZM8.92899 141.354C8.79126 140.474 8.85402 139.235 9.12328 137.634C9.39225 136.034 9.86602 134.078 10.5453 131.766L10.3534 131.71C9.67285 134.026 9.1968 135.99 8.92605 137.6C8.65558 139.209 8.58869 140.473 8.73139 141.385L8.92899 141.354ZM10.5454 131.766C11.7902 127.521 13.89 122.327 16.8463 116.185L16.666 116.099C13.7073 122.246 11.6025 127.45 10.3534 131.71L10.5454 131.766ZM16.846 116.186C18.8141 112.161 20.2323 108.553 21.0993 105.363L20.9063 105.31C20.0436 108.485 18.6307 112.081 16.6663 116.098L16.846 116.186ZM21.0992 105.363C21.99 102.137 22.8679 97.3332 23.7334 90.956L23.5352 90.9291C22.67 97.304 21.7935 102.097 20.9064 105.31L21.0992 105.363ZM23.7334 90.9559C24.5066 85.206 25.1752 81.0941 25.7391 78.6175L25.5441 78.5731C24.9781 81.0593 24.3085 85.1789 23.5352 90.9292L23.7334 90.9559ZM25.7389 78.6186C26.036 77.3776 26.346 76.3968 26.6681 75.6738C26.9919 74.947 27.3212 74.4965 27.6477 74.2952L27.5428 74.1249C27.1625 74.3594 26.8128 74.8576 26.4854 75.5925C26.1563 76.3312 25.8429 77.3252 25.5444 78.572L25.7389 78.6186ZM27.6543 74.2908C28.508 73.667 29.2294 73.2988 29.8207 73.1748L29.7797 72.979C29.1476 73.1116 28.3991 73.4989 27.5363 74.1293L27.6543 74.2908ZM29.8207 73.1748C30.273 73.0799 30.6264 73.1531 30.8968 73.3774C31.1716 73.6052 31.3769 74.0022 31.4999 74.5882L31.6956 74.5471C31.5683 73.9404 31.3489 73.4925 31.0245 73.2234C30.6958 72.9508 30.2755 72.875 29.7797 72.979L29.8207 73.1748ZM31.4999 74.5882C31.6859 75.4749 31.692 76.7786 31.5125 78.5057C31.3332 80.2309 30.9696 82.371 30.421 84.927L30.6166 84.9689C31.166 82.4091 31.5311 80.2613 31.7114 78.5264C31.8916 76.7935 31.8882 75.4649 31.6956 74.5471L31.4999 74.5882ZM30.4206 84.9292C29.9647 87.3259 29.6031 89.6391 29.3357 91.8688L29.5343 91.8926C29.801 89.6678 30.162 87.3591 30.6171 84.9666L30.4206 84.9292ZM29.3356 91.8697C29.2141 92.9654 29.1309 93.8264 29.086 94.4524C29.0636 94.7653 29.0508 95.0204 29.0476 95.2173C29.0444 95.4112 29.0504 95.5568 29.069 95.6455L29.2648 95.6044C29.2513 95.5402 29.2444 95.4151 29.2475 95.2205C29.2506 95.0289 29.2633 94.7778 29.2855 94.4667C29.3301 93.8445 29.413 92.9864 29.5344 91.8918L29.3356 91.8697ZM29.2402 95.693C30.4873 94.348 31.6587 93.2594 32.7544 92.4261L32.6333 92.2669C31.526 93.1091 30.3461 94.2061 29.0936 95.557L29.2402 95.693ZM32.7581 92.4231L34.5094 90.954L34.3808 90.8008L32.6296 92.2699L32.7581 92.4231ZM34.5106 90.953C36.2083 89.4821 37.8982 88.2845 39.58 87.3593L39.4836 87.184C37.7876 88.1171 36.0863 89.3233 34.3796 90.8018L34.5106 90.953ZM39.58 87.3593C41.2655 86.432 42.6505 85.8574 43.7373 85.6293L43.6962 85.4336C42.5811 85.6676 41.176 86.253 39.4836 87.184L39.58 87.3593ZM43.7373 85.6293C44.2972 85.5118 44.7225 85.5021 45.022 85.5875C45.3137 85.6706 45.4861 85.843 45.5559 86.1086L45.7493 86.0578C45.6601 85.7181 45.4305 85.4959 45.0768 85.3951C44.7311 85.2966 44.268 85.3136 43.6962 85.4336L43.7373 85.6293ZM45.5547 86.1037C45.5703 86.1778 45.5604 86.2776 45.5117 86.4085C45.4633 86.5387 45.3792 86.6925 45.2564 86.8706C45.0109 87.2267 44.619 87.668 44.0773 88.1954L44.2168 88.3387C44.7622 87.8077 45.1648 87.3559 45.4211 86.9841C45.5493 86.7982 45.643 86.6293 45.6991 86.4782C45.7551 86.3277 45.7766 86.1874 45.7505 86.0627L45.5547 86.1037ZM44.0762 88.1965C43.1573 89.1205 42.0119 90.1091 40.6391 91.162L40.7609 91.3207C42.1385 90.2639 43.2912 89.2695 44.218 88.3375L44.0762 88.1965ZM40.6411 91.1606C34.9732 95.2974 29.2392 103.029 23.4353 114.341L23.6133 114.432C29.4128 103.129 35.1293 95.431 40.759 91.3221L40.6411 91.1606ZM23.4375 114.337C23.0607 114.995 22.1961 116.826 20.8462 119.822L21.0286 119.904C22.3802 116.904 23.2402 115.084 23.6111 114.436L23.4375 114.337ZM20.8459 119.822C19.5244 122.816 18.228 126.156 16.9565 129.841L17.1456 129.907C18.4156 126.226 19.71 122.891 21.0289 119.903L20.8459 119.822ZM16.9563 129.842C15.7144 133.524 15.0215 136.712 14.8806 139.403L15.0803 139.414C15.2199 136.746 15.9074 133.578 17.1458 129.906L16.9563 129.842ZM14.8805 139.406C14.8622 140.086 14.9046 140.676 15.0094 141.175L15.2051 141.134C15.1045 140.654 15.0624 140.08 15.0804 139.411L14.8805 139.406ZM15.0094 141.175C15.1763 141.97 15.5039 142.58 15.9998 142.994C16.4958 143.408 17.1493 143.616 17.9505 143.627L17.9533 143.427C17.1853 143.416 16.5801 143.218 16.1279 142.84C15.6755 142.463 15.3655 141.898 15.2051 141.134L15.0094 141.175ZM17.9725 143.625L18.3395 143.548L18.2984 143.352L17.9314 143.429L17.9725 143.625ZM18.3395 143.548C19.6642 143.27 21.247 142.337 23.0856 140.767C24.9262 139.196 27.0324 136.978 29.4038 134.115L29.2498 133.988C26.8822 136.846 24.7843 139.054 22.9557 140.615C21.125 142.178 19.5733 143.085 18.2984 143.352L18.3395 143.548ZM29.4036 134.116C34.1782 128.383 38.8257 121.368 43.3466 113.072L43.171 112.976C38.6548 121.264 34.0143 128.267 29.2499 133.988L29.4036 134.116ZM43.3473 113.07C47.7092 104.775 51.4914 95.8503 54.6942 86.2973L54.5046 86.2337C51.305 95.7774 47.5268 104.692 43.1703 112.977L43.3473 113.07ZM54.6942 86.2973C57.8969 76.7446 60.1972 67.6837 61.5945 59.1146L61.3972 59.0824C60.0018 67.6393 57.7044 76.6897 54.5046 86.2337L54.6942 86.2973ZM61.5945 59.1148C63.016 50.5093 63.2276 43.5075 62.224 38.1134L62.0274 38.15C63.025 43.5117 62.8168 50.4877 61.3972 59.0822L61.5945 59.1148ZM62.2235 38.1112C61.1424 32.9584 58.9104 30.1107 55.4959 29.6557L55.4695 29.8539C58.7561 30.2919 60.9528 33.0288 62.0278 38.1523L62.2235 38.1112ZM55.4952 29.6556C54.5308 29.5342 53.4627 29.5975 52.2922 29.8431L52.3333 30.0389C53.4871 29.7968 54.5323 29.736 55.4702 29.854L55.4952 29.6556ZM52.2922 29.8431C49.3069 30.4695 45.5848 32.2779 41.1289 35.2581L41.2401 35.4243C45.6885 32.4492 49.3853 30.6574 52.3333 30.0389L52.2922 29.8431ZM41.1286 35.2583C38.435 37.0724 35.0801 39.9836 31.065 43.9885L31.2062 44.1301C35.218 40.1286 38.5624 37.2277 41.2404 35.4242L41.1286 35.2583ZM31.0647 43.9887C27.079 47.9884 23.0861 52.4844 19.0861 57.4767L19.2422 57.6018C23.2383 52.6144 27.2264 48.1238 31.2064 44.1299L31.0647 43.9887ZM19.0861 57.4767C15.0854 62.4698 11.6872 67.3692 8.89197 72.1748L9.06486 72.2754C11.8545 67.4795 15.2468 62.5883 19.2422 57.6018L19.0861 57.4767ZM8.89197 72.1748C6.0961 76.9814 4.5427 81.1202 4.24241 84.5884L4.44167 84.6057C4.73833 81.1794 6.27585 77.0702 9.06486 72.2754L8.89197 72.1748ZM4.32151 84.4992C3.41517 84.6893 2.71393 84.639 2.20418 84.3684C1.69844 84.1 1.36224 83.6046 1.20606 82.8603L1.01033 82.9013C1.175 83.6862 1.53821 84.2414 2.11042 84.5451C2.67861 84.8466 3.43388 84.8898 4.36258 84.6949L4.32151 84.4992ZM1.20606 82.8603C0.941797 81.6008 1.1543 79.7706 1.85976 77.3591L1.66781 77.3029C0.960116 79.7221 0.735556 81.5918 1.01033 82.9013L1.20606 82.8603ZM1.85945 77.3601C2.59424 74.9462 3.8117 72.0937 5.5135 68.8018L5.33584 68.71C3.63078 72.0081 2.40765 74.8724 1.66812 77.3019L1.85945 77.3601ZM5.5135 68.8018C7.21477 65.511 9.29757 62.0596 11.7622 58.4476L11.597 58.3348C9.12858 61.9524 7.04142 65.4108 5.33584 68.71L5.5135 68.8018ZM11.7622 58.4475C14.2507 54.799 17.0215 51.2027 20.0747 47.6586L19.9232 47.5281C16.8653 51.0775 14.0899 54.6798 11.597 58.3349L11.7622 58.4475ZM20.0751 47.6582C23.1212 44.0843 26.3657 40.772 29.8084 37.7211L29.6758 37.5714C26.2259 40.6286 22.9749 43.9476 19.9228 47.5285L20.0751 47.6582ZM29.8089 37.7207C33.2444 34.64 36.7754 32.0181 40.4018 29.8546L40.2993 29.6828C36.6609 31.8535 33.1196 34.4833 29.6753 37.5718L29.8089 37.7207ZM40.4016 29.8547C44.0566 27.686 47.6823 26.2251 51.2789 25.4705L51.2379 25.2748C47.6167 26.0346 43.9705 27.5045 40.2995 29.6827L40.4016 29.8547ZM51.2789 25.4705C54.4125 24.813 57.3677 24.9868 60.1469 25.9894L60.2148 25.8012C57.3978 24.785 54.4046 24.6103 51.2379 25.2748L51.2789 25.4705ZM60.1478 25.9897C62.9206 26.9619 65.0315 28.5773 66.4863 30.8353L66.6544 30.727C65.1733 28.4281 63.0247 26.7864 60.214 25.8009L60.1478 25.9897ZM66.4837 30.8311C67.3807 32.3865 68.0635 34.2757 68.5303 36.5005L68.7261 36.4595C68.256 34.2191 67.5669 32.309 66.657 30.7312L66.4837 30.8311ZM68.5303 36.5005C69.2334 39.8516 69.3998 44.7395 69.0254 51.1697L69.225 51.1813C69.5997 44.746 69.4347 39.8369 68.7261 36.4595L68.5303 36.5005ZM69.0254 51.1697C68.6514 57.5929 67.1485 65.7083 64.5145 75.5177L64.7077 75.5696C67.3434 65.7536 68.85 57.6236 69.225 51.1813L69.0254 51.1697ZM64.5145 75.5178C61.9051 85.2883 58.5126 94.8242 54.3367 104.126L54.5192 104.208C58.6994 94.8964 62.0956 85.3503 64.7077 75.5694L64.5145 75.5178ZM54.3368 104.125C52.8138 107.507 50.594 111.754 47.6766 116.867L47.8503 116.966C50.7693 111.85 52.9925 107.597 54.5192 104.208L54.3368 104.125ZM47.6766 116.867C44.7604 121.978 41.4275 127.08 37.6778 132.175L37.8389 132.294C41.5929 127.193 44.93 122.084 47.8503 116.966L47.6766 116.867ZM37.6778 132.175C33.9299 137.268 30.0282 141.466 25.973 144.771L26.0993 144.926C30.17 141.608 34.083 137.397 37.8389 132.294L37.6778 132.175ZM25.9731 144.77C23.117 147.089 20.3225 148.531 17.5896 149.105L17.6306 149.3C20.4029 148.719 23.2257 147.258 26.0992 144.926L25.9731 144.77ZM90.4404 135.214L90.4585 135.116L90.457 135.116L90.4404 135.214ZM88.8501 134.255L88.7632 134.304L88.7638 134.305L88.8501 134.255ZM89.6806 109.223L89.7787 109.243L89.7789 109.242L89.6806 109.223ZM92.5756 94.4861L92.6723 94.5115L92.6783 94.4887L92.6734 94.4656L92.5756 94.4861ZM89.3948 96.4467L89.3294 96.371L89.3293 96.3711L89.3948 96.4467ZM79.2289 99.5855L79.2726 99.4955L79.2712 99.4949L79.2289 99.5855ZM78.0079 88.0593L77.9097 88.0405L77.9097 88.0407L78.0079 88.0593ZM79.9011 80.1904L79.9969 80.219L79.9972 80.218L79.9011 80.1904ZM81.6979 75.7422L81.6349 75.6646L81.6283 75.6699L81.6227 75.6763L81.6979 75.7422ZM87.2444 74.0995L87.2271 74.1981L87.2314 74.1987L87.2444 74.0995ZM87.3126 80.3596L87.4095 80.384L87.4101 80.3818L87.3126 80.3596ZM86.2402 84.6078L86.3364 84.6354L86.3372 84.6323L86.2402 84.6078ZM84.7373 90.0001L84.6406 89.9747L84.6401 89.9769L84.7373 90.0001ZM87.5907 90.3593L87.521 90.2876L87.5204 90.2881L87.5907 90.3593ZM93.1159 84.5062L93.1906 84.5727L93.1914 84.5718L93.1159 84.5062ZM98.7402 78.4408L98.6722 78.3674L98.6716 78.368L98.7402 78.4408ZM102.884 76.2781L102.869 76.3771L102.876 76.3777L102.884 76.2781ZM103.16 86.9489L103.067 86.9101L103.066 86.9133L103.16 86.9489ZM95.9683 111.112L95.8707 111.091L95.8706 111.091L95.9683 111.112ZM102.502 120.566L102.422 120.506L102.422 120.506L102.502 120.566ZM130.647 77.1104L130.734 77.1601L130.734 77.159L130.647 77.1104ZM137.492 65.9036L137.572 65.9627L137.573 65.962L137.492 65.9036ZM143.604 62.849L143.694 62.8053L143.689 62.7954L143.682 62.7868L143.604 62.849ZM143.688 63.0228L143.786 63.0023L143.784 62.9903L143.778 62.9792L143.688 63.0228ZM138.811 74.2479L138.723 74.2003L138.723 74.2006L138.811 74.2479ZM124.107 99.1258L124.022 99.0728L124.022 99.0729L124.107 99.1258ZM99.9765 131.585L100.038 131.664L100.041 131.661L99.9765 131.585ZM92.9838 135.01C92.0137 135.213 91.1727 135.247 90.4585 135.116L90.4224 135.313C91.1693 135.45 92.0376 135.413 93.0249 135.205L92.9838 135.01ZM90.457 135.116C89.7156 134.991 89.2163 134.684 88.9365 134.204L88.7638 134.305C89.082 134.85 89.6429 135.182 90.4239 135.313L90.457 135.116ZM88.9371 134.206C88.5386 133.504 88.2234 132.607 87.9938 131.513L87.7981 131.554C88.0305 132.662 88.3514 133.579 88.7632 134.304L88.9371 134.206ZM87.9938 131.513C87.068 127.1 87.6584 119.682 89.7786 109.243L89.5826 109.203C87.4623 119.642 86.8629 127.097 87.7981 131.554L87.9938 131.513ZM89.7789 109.242C91.5497 100.022 92.5137 95.1155 92.6723 94.5115L92.4789 94.4607C92.318 95.0733 91.352 99.9911 89.5824 109.204L89.7789 109.242ZM92.6734 94.4656C92.6574 94.3893 92.6225 94.3182 92.5555 94.2744C92.4885 94.2306 92.4093 94.2272 92.333 94.2432L92.3741 94.439C92.4202 94.4293 92.4392 94.4373 92.4461 94.4418C92.4531 94.4464 92.468 94.4606 92.4777 94.5066L92.6734 94.4656ZM92.333 94.2432C92.2039 94.2703 92.046 94.3378 91.8622 94.4393C91.6772 94.5415 91.4602 94.6815 91.2118 94.8582C90.715 95.2118 90.0873 95.7164 89.3294 96.371L89.4601 96.5224C90.216 95.8696 90.8383 95.3695 91.3278 95.0212C91.5725 94.847 91.7828 94.7117 91.9589 94.6144C92.1364 94.5164 92.2738 94.46 92.3741 94.439L92.333 94.2432ZM89.3293 96.3711C87.1485 98.2605 85.0752 99.4061 83.1095 99.8186L83.1506 100.014C85.1607 99.5926 87.264 98.425 89.4602 96.5223L89.3293 96.3711ZM83.1095 99.8186C81.627 100.13 80.3502 100.019 79.2726 99.4955L79.1852 99.6754C80.3118 100.222 81.6358 100.332 83.1506 100.014L83.1095 99.8186ZM79.2712 99.4949C78.1694 98.9806 77.4839 98.0863 77.2138 96.7993L77.0181 96.8404C77.2999 98.1836 78.023 99.133 79.1866 99.6761L79.2712 99.4949ZM77.2138 96.7993C77.0825 96.1734 77.0877 95.1357 77.2363 93.6764C77.3845 92.2203 77.6743 90.3545 78.1062 88.078L77.9097 88.0407C77.4773 90.32 77.1864 92.1921 77.0373 93.6562C76.8886 95.117 76.8799 96.1817 77.0181 96.8404L77.2138 96.7993ZM78.1061 88.0782C78.6547 85.2197 79.2851 82.6 79.9969 80.219L79.8053 80.1617C79.0912 82.5502 78.4594 85.1765 77.9097 88.0405L78.1061 88.0782ZM79.9972 80.218C80.338 79.0306 80.6572 78.0689 80.9548 77.3321C81.2536 76.5926 81.527 76.0884 81.773 75.8082L81.6227 75.6763C81.3533 75.9832 81.0696 76.5139 80.7694 77.2572C80.4681 78.003 80.1467 78.9719 79.805 80.1628L79.9972 80.218ZM81.7609 75.8199C82.703 75.0552 83.7927 74.5428 85.0317 74.2828L84.9907 74.0871C83.7218 74.3533 82.6027 74.879 81.6349 75.6646L81.7609 75.8199ZM85.0317 74.2828C85.8481 74.1115 86.5793 74.0844 87.2271 74.198L87.2617 74.001C86.5834 73.882 85.8258 73.9118 84.9907 74.0871L85.0317 74.2828ZM87.2314 74.1987C87.5498 74.2403 87.7903 74.3259 87.9605 74.4491C88.1284 74.5705 88.2327 74.7315 88.2758 74.9368L88.4715 74.8958C88.4183 74.6423 88.2863 74.4379 88.0778 74.287C87.8716 74.1379 87.5955 74.0445 87.2573 74.0004L87.2314 74.1987ZM88.2758 74.9368C88.2799 74.9564 88.2819 75.0025 88.2763 75.0848C88.2709 75.164 88.2592 75.2679 88.2408 75.3973C88.2042 75.656 88.1419 76.0115 88.0536 76.4644C87.877 77.3701 87.5976 78.6608 87.2151 80.3373L87.4101 80.3818C87.7927 78.7047 88.0727 77.4115 88.2499 76.5027C88.3384 76.0484 88.4015 75.6891 88.4388 75.4253C88.4575 75.2936 88.4699 75.1844 88.4758 75.0985C88.4815 75.0158 88.4819 74.945 88.4715 74.8958L88.2758 74.9368ZM87.2156 80.3351L86.1432 84.5833L86.3372 84.6323L87.4095 80.384L87.2156 80.3351ZM86.1441 84.5802C85.4616 86.9587 84.9604 88.757 84.6406 89.9747L84.8341 90.0255C85.1533 88.8101 85.654 87.0135 86.3363 84.6354L86.1441 84.5802ZM84.6401 89.9769C84.4952 90.5838 84.3964 91.0911 84.3444 91.4979C84.2927 91.9021 84.2859 92.2163 84.3312 92.4322L84.527 92.3911C84.4888 92.2094 84.4917 91.9228 84.5428 91.5232C84.5935 91.1262 84.6906 90.6265 84.8346 90.0233L84.6401 89.9769ZM84.3312 92.4322C84.3627 92.5822 84.4233 92.7061 84.5263 92.7824C84.6318 92.8605 84.7627 92.8749 84.9033 92.8454L84.8622 92.6496C84.7581 92.6715 84.6911 92.6555 84.6453 92.6217C84.5972 92.586 84.5532 92.5163 84.527 92.3911L84.3312 92.4322ZM84.9033 92.8454C84.9498 92.8356 85.0019 92.811 85.0555 92.7798C85.111 92.7476 85.1757 92.704 85.249 92.6498C85.3958 92.5414 85.5828 92.3868 85.8094 92.187C86.2628 91.7871 86.8802 91.2013 87.6609 90.4305L87.5204 90.2881C86.7405 91.0581 86.1263 91.6408 85.6771 92.037C85.4523 92.2352 85.2703 92.3855 85.1302 92.4889C85.0601 92.5407 85.0019 92.5797 84.9551 92.6069C84.9065 92.6351 84.8768 92.6466 84.8622 92.6496L84.9033 92.8454ZM87.6604 90.431C89.2539 88.8815 91.0973 86.9286 93.1906 84.5727L93.0411 84.4398C90.9498 86.7935 89.1098 88.7426 87.521 90.2876L87.6604 90.431ZM93.1914 84.5718C95.6344 81.7606 97.5065 79.7419 98.8088 78.5135L98.6716 78.368C97.3617 79.6036 95.4842 81.6285 93.0404 84.4406L93.1914 84.5718ZM98.8082 78.5141C100.143 77.2779 101.237 76.5821 102.096 76.4019L102.055 76.2062C101.14 76.3982 100.011 77.1269 98.6722 78.3674L98.8082 78.5141ZM102.096 76.4019C102.36 76.3465 102.618 76.3384 102.869 76.3769L102.9 76.1792C102.623 76.1369 102.341 76.1461 102.055 76.2062L102.096 76.4019ZM102.876 76.3777C103.631 76.4402 104.212 76.6111 104.627 76.8827C105.04 77.1522 105.295 77.5239 105.395 78.0024L105.591 77.9613C105.479 77.4305 105.193 77.0136 104.737 76.7152C104.283 76.4189 103.666 76.2425 102.893 76.1784L102.876 76.3777ZM105.395 78.0024C105.551 78.7432 105.442 79.8539 105.054 81.3453C104.666 82.8333 104.005 84.6879 103.068 86.9101L103.252 86.9878C104.191 84.7611 104.856 82.8967 105.247 81.3957C105.637 79.8981 105.756 78.7496 105.591 77.9613L105.395 78.0024ZM103.066 86.9133C100.182 94.4839 97.7831 102.543 95.8707 111.091L96.0659 111.134C97.9763 102.595 100.372 94.5454 103.253 86.9846L103.066 86.9133ZM95.8706 111.091C94.9331 115.376 94.2961 118.91 93.9601 121.691C93.6245 124.469 93.5879 126.506 93.8578 127.792L94.0535 127.751C93.7908 126.499 93.8234 124.49 94.1587 121.715C94.4936 118.943 95.1292 115.416 96.066 111.134L95.8706 111.091ZM93.8578 127.792C93.9424 128.195 94.0628 128.502 94.2275 128.697C94.311 128.796 94.4074 128.868 94.5175 128.908C94.628 128.948 94.746 128.953 94.8687 128.927L94.8277 128.732C94.7363 128.751 94.6566 128.746 94.5856 128.72C94.5143 128.694 94.4457 128.645 94.3804 128.568C94.2476 128.41 94.1358 128.143 94.0535 127.751L93.8578 127.792ZM94.8687 128.927C95.1838 128.861 95.5767 128.63 96.0431 128.254C96.5125 127.875 97.0672 127.339 97.7067 126.649C98.9858 125.268 100.611 123.26 102.582 120.626L102.422 120.506C100.453 123.138 98.8321 125.139 97.5599 126.513C96.9238 127.2 96.3764 127.727 95.9175 128.098C95.4556 128.471 95.0937 128.676 94.8277 128.732L94.8687 128.927ZM102.582 120.626C106.561 115.383 111.073 108.879 116.118 101.113L115.951 101.004C110.907 108.767 106.398 115.267 102.422 120.506L102.582 120.626ZM116.118 101.113C121.164 93.348 126.036 85.3636 130.734 77.1601L130.56 77.0607C125.864 85.261 120.994 93.2422 115.951 101.004L116.118 101.113ZM130.734 77.159C133.585 72.0275 135.864 68.2964 137.572 65.9627L137.411 65.8445C135.695 68.1888 133.411 71.9289 130.56 77.0619L130.734 77.159ZM137.573 65.962C138.424 64.78 139.193 63.8691 139.881 63.2267C140.57 62.5826 141.168 62.2169 141.677 62.1102L141.636 61.9145C141.074 62.0324 140.443 62.4276 139.744 63.0805C139.043 63.7352 138.265 64.6576 137.41 65.8452L137.573 65.962ZM141.677 62.1102C142.025 62.0372 142.35 62.0671 142.654 62.1979C142.96 62.3292 143.251 62.5646 143.526 62.9111L143.682 62.7868C143.393 62.4216 143.077 62.1617 142.733 62.0141C142.388 61.866 142.022 61.8335 141.636 61.9145L141.677 62.1102ZM143.514 62.8926L143.598 63.0665L143.778 62.9792L143.694 62.8053L143.514 62.8926ZM143.59 63.0434C143.641 63.2844 143.589 63.6974 143.414 64.2986C143.24 64.8943 142.951 65.6585 142.546 66.5921C141.735 68.459 140.461 70.9947 138.723 74.2003L138.899 74.2956C140.638 71.0882 141.915 68.5466 142.729 66.6718C143.136 65.7346 143.429 64.9618 143.606 64.3545C143.781 63.7526 143.848 63.2966 143.786 63.0023L143.59 63.0434ZM138.723 74.2006C135.279 80.6044 130.379 88.8949 124.022 99.0728L124.191 99.1788C130.55 88.9992 135.453 80.7045 138.899 74.2953L138.723 74.2006ZM124.022 99.0729C113.437 116.047 105.401 126.853 99.9118 131.509L100.041 131.661C105.558 126.983 113.608 116.15 124.191 99.1787L124.022 99.0729ZM99.9154 131.506C97.4771 133.386 95.1667 134.552 92.9838 135.01L93.0249 135.205C95.2461 134.739 97.5838 133.556 100.038 131.664L99.9154 131.506ZM156.346 86.8533L156.347 86.9533L156.348 86.9533L156.346 86.8533ZM151.514 85.2809L151.45 85.3577L151.451 85.3584L151.514 85.2809ZM148.337 80.8704L148.429 80.8305L148.429 80.8294L148.337 80.8704ZM145.335 57.8877L145.435 57.8957L145.435 57.8943L145.335 57.8877ZM147.536 37.7887L147.437 37.7745L147.437 37.7748L147.536 37.7887ZM151.1 15.9669L151.001 15.9481L151.001 15.9485L151.1 15.9669ZM154.259 2.9469L154.168 2.90457L154.167 2.90859L154.259 2.9469ZM160.233 0.831294L160.311 0.769158L160.306 0.762674L160.3 0.757123L160.233 0.831294ZM160.197 4.76639L160.097 4.75384L160.097 4.75547L160.197 4.76639ZM159.224 10.8616L159.322 10.8814L159.323 10.8811L159.224 10.8616ZM154.794 36.3137L154.695 36.2989L154.695 36.2993L154.794 36.3137ZM152.388 57.0306L152.288 57.0248L152.288 57.0267L152.388 57.0306ZM155.847 78.7679L155.763 78.8231L155.765 78.8248L155.847 78.7679ZM181.257 56.2897L181.173 56.235L181.172 56.2365L181.257 56.2897ZM183.197 53.4399L183.275 53.5036L183.278 53.4989L183.197 53.4399ZM184.028 52.8345L184.014 52.7352L184.008 52.7366L184.028 52.8345ZM185.339 53.3737L185.267 53.4431L185.27 53.4461L185.339 53.3737ZM181.493 64.7178L181.576 64.773L181.576 64.7728L181.493 64.7178ZM165.994 82.3864L166.057 82.464L166.057 82.4638L165.994 82.3864ZM157.914 86.5658C157.369 86.6802 156.846 86.7426 156.344 86.7534L156.348 86.9533C156.863 86.9423 157.399 86.8782 157.955 86.7616L157.914 86.5658ZM156.345 86.7534C154.453 86.7712 152.866 86.253 151.577 85.2033L151.451 85.3584C152.781 86.4414 154.415 86.9715 156.347 86.9533L156.345 86.7534ZM151.578 85.204C150.276 84.1187 149.226 82.6621 148.429 80.8305L148.246 80.9103C149.053 82.7655 150.12 84.2492 151.45 85.3577L151.578 85.204ZM148.429 80.8294C147.593 78.969 146.945 76.9412 146.484 74.7455L146.288 74.7865C146.751 76.9949 147.404 79.0367 148.246 80.9114L148.429 80.8294ZM146.484 74.7455C145.843 71.6927 145.469 68.616 145.36 65.5154L145.16 65.5224C145.269 68.6345 145.645 71.7226 146.288 74.7865L146.484 74.7455ZM145.36 65.5154C145.251 62.411 145.276 59.8715 145.435 57.8957L145.235 57.8797C145.076 59.8662 145.051 62.4141 145.16 65.5224L145.36 65.5154ZM145.435 57.8943C145.799 52.329 146.532 45.632 147.635 37.8027L147.437 37.7748C146.334 45.6072 145.6 52.3095 145.235 57.8812L145.435 57.8943ZM147.635 37.8029C148.762 29.9362 149.95 22.6637 151.198 15.9853L151.001 15.9485C149.752 22.6301 148.564 29.9055 147.437 37.7745L147.635 37.8029ZM151.198 15.9857C152.478 9.29714 153.529 4.96762 154.351 2.98522L154.167 2.90859C153.335 4.9133 152.28 9.26377 151.001 15.9481L151.198 15.9857ZM154.35 2.9892C154.672 2.2981 155.16 1.72783 155.816 1.27766L155.703 1.11278C155.019 1.58231 154.507 2.17983 154.168 2.90461L154.35 2.9892ZM155.816 1.27766C156.476 0.824313 157.151 0.526473 157.84 0.381922L157.799 0.186184C157.081 0.33682 156.382 0.646425 155.703 1.11278L155.816 1.27766ZM157.84 0.381922C158.793 0.181826 159.564 0.360718 160.166 0.905465L160.3 0.757123C159.642 0.161519 158.802 -0.0244156 157.799 0.186184L157.84 0.381922ZM160.155 0.893429C160.182 0.928213 160.217 1.01127 160.249 1.16334L160.444 1.12227C160.412 0.968488 160.371 0.843876 160.311 0.769158L160.155 0.893429ZM160.249 1.16334C160.31 1.45668 160.33 1.9015 160.305 2.50333C160.28 3.10343 160.211 3.85338 160.097 4.75384L160.296 4.77894C160.41 3.87536 160.48 3.11935 160.505 2.51159C160.53 1.90555 160.511 1.4406 160.444 1.12227L160.249 1.16334ZM160.097 4.75547C159.9 6.54956 159.577 8.57834 159.126 10.842L159.323 10.8811C159.774 8.61314 160.098 6.57848 160.296 4.77732L160.097 4.75547ZM159.126 10.8417C157.527 18.7466 156.05 27.2323 154.695 36.2989L154.893 36.3285C156.248 27.2648 157.724 18.7825 159.322 10.8814L159.126 10.8417ZM154.695 36.2993C153.371 45.3588 152.568 52.2678 152.288 57.0248L152.487 57.0365C152.767 52.2884 153.569 45.3862 154.893 36.3282L154.695 36.2993ZM152.288 57.0267C152.055 62.9238 152.362 67.8972 153.212 71.9449L153.407 71.9038C152.562 67.8774 152.255 62.9216 152.488 57.0346L152.288 57.0267ZM153.212 71.9449C153.829 74.8874 154.678 77.1822 155.763 78.8231L155.93 78.7127C154.864 77.1011 154.022 74.8335 153.407 71.9038L153.212 71.9449ZM155.765 78.8248C156.877 80.4324 158.151 81.1167 159.582 80.8165L159.54 80.6208C158.219 80.8981 157.016 80.282 155.929 78.711L155.765 78.8248ZM159.582 80.8165C160.817 80.5572 162.195 79.8477 163.713 78.6976C165.232 77.547 166.896 75.9513 168.707 73.9126C172.328 69.8352 176.54 63.9778 181.342 56.343L181.172 56.2365C176.373 63.8672 172.168 69.7142 168.557 73.7798C166.752 75.8126 165.097 77.3981 163.592 78.5382C162.086 79.679 160.736 80.3699 159.54 80.6208L159.582 80.8165ZM181.341 56.3444C182.381 54.7511 183.025 53.807 183.275 53.5035L183.12 53.3763C182.861 53.6905 182.211 54.6463 181.173 56.235L181.341 56.3444ZM183.278 53.4989C183.517 53.1724 183.775 52.9899 184.049 52.9324L184.008 52.7366C183.67 52.8074 183.374 53.0285 183.117 53.3809L183.278 53.4989ZM184.042 52.9335C184.468 52.8735 184.874 53.0344 185.267 53.443L185.411 53.3045C184.987 52.8627 184.519 52.6642 184.014 52.7355L184.042 52.9335ZM185.27 53.4461C185.695 53.8512 185.965 54.3332 186.083 54.8941L186.278 54.853C186.152 54.2516 185.861 53.7338 185.408 53.3014L185.27 53.4461ZM186.083 54.8941C186.15 55.2152 186.111 55.6601 185.953 56.2366C185.796 56.811 185.524 57.5064 185.135 58.3238C184.356 59.9585 183.115 62.0711 181.409 64.6628L181.576 64.7728C183.284 62.1779 184.531 60.0565 185.315 58.4098C185.707 57.5865 185.985 56.8793 186.146 56.2893C186.307 55.7013 186.355 55.22 186.278 54.853L186.083 54.8941ZM181.409 64.6626C179.351 67.7734 176.978 70.903 174.288 74.0513L174.44 74.1812C177.134 71.0273 179.513 67.8912 181.576 64.773L181.409 64.6626ZM174.288 74.0513C171.6 77.1984 168.814 79.9508 165.93 82.309L166.057 82.4638C168.951 80.0973 171.745 77.3363 174.44 74.1812L174.288 74.0513ZM165.931 82.3088C163.073 84.6282 160.401 86.044 157.914 86.5658L157.955 86.7616C160.484 86.231 163.185 84.7953 166.057 82.464L165.931 82.3088ZM207.766 74.0048L207.741 74.1015L207.742 74.1017L207.766 74.0048ZM203.24 70.6919L203.154 70.7441L203.156 70.7468L203.24 70.6919ZM200.522 63.2157L200.619 63.1925L200.582 63.0367L200.458 63.1386L200.522 63.2157ZM198.318 65.4981L198.394 65.5636L198.394 65.563L198.318 65.4981ZM192.806 70.7259L192.862 70.8087L192.864 70.8074L192.806 70.7259ZM184.252 71.2753L184.196 71.3584L184.201 71.3615L184.252 71.2753ZM182.638 61.9869L182.731 62.0248L182.731 62.0237L182.638 61.9869ZM185.836 55.9995L185.918 56.0566L185.919 56.0558L185.836 55.9995ZM189.163 51.9966L189.229 52.0722L189.23 52.0708L189.163 51.9966ZM192.535 49.8044L192.577 49.8953L192.579 49.8943L192.535 49.8044ZM201.793 49.8734L201.891 49.8528L201.889 49.8462L201.793 49.8734ZM201.155 51.3963L201.215 51.476L201.217 51.4747L201.155 51.3963ZM198.226 52.7294L198.193 52.6348L198.19 52.6358L198.226 52.7294ZM193.414 56.2774L193.339 56.2118L193.338 56.2125L193.414 56.2774ZM191.934 64.0597L192.004 64.1307L192.005 64.1298L191.934 64.0597ZM195.065 60.7206L195.139 60.7877L195.141 60.7857L195.065 60.7206ZM199.498 56.0546L199.567 56.1272L199.568 56.1264L199.498 56.0546ZM207.366 59.7681L207.465 59.7605L207.465 59.7595L207.366 59.7681ZM210.031 67.447L209.968 67.5249L209.969 67.526L210.031 67.447ZM214.798 68.0272L214.819 68.1253L214.825 68.1236L214.798 68.0272ZM230.631 59.4845L230.693 59.5632L230.693 59.563L230.631 59.4845ZM244.034 46.6622L244.111 46.7256L244.112 46.7242L244.034 46.6622ZM245.397 44.9394L245.318 44.8772L245.318 44.8773L245.397 44.9394ZM248.506 41.2695L248.578 41.339L248.58 41.3372L248.506 41.2695ZM252.418 39.826L252.436 39.7275L252.433 39.7271L252.418 39.826ZM252.928 42.2575L253.013 42.3123L253.018 42.302L252.928 42.2575ZM216.137 73.4939L216.165 73.5897L216.166 73.5894L216.137 73.4939ZM214.025 73.9305C211.775 74.4028 209.697 74.3941 207.791 73.9079L207.742 74.1017C209.682 74.5966 211.791 74.6037 214.066 74.1263L214.025 73.9305ZM207.792 73.9081C205.925 73.4177 204.436 72.329 203.323 70.637L203.156 70.7468C204.294 72.478 205.824 73.598 207.741 74.1015L207.792 73.9081ZM203.325 70.6397C202.312 68.9833 201.409 66.5031 200.619 63.1925L200.424 63.239C201.216 66.5572 202.125 69.0611 203.154 70.7441L203.325 70.6397ZM200.458 63.1386C199.879 63.6154 199.141 64.3814 198.242 65.4331L198.394 65.563C199.29 64.514 200.02 63.7585 200.585 63.2929L200.458 63.1386ZM198.243 65.4325C197.499 66.2895 196.666 67.1814 195.744 68.108L195.886 68.2491C196.81 67.3197 197.646 66.4245 198.394 65.5636L198.243 65.4325ZM195.744 68.108C194.826 69.032 193.827 69.8774 192.748 70.6444L192.864 70.8074C193.952 70.034 194.959 69.1812 195.886 68.2491L195.744 68.108ZM192.749 70.6431C191.669 71.376 190.54 71.8654 189.361 72.1128L189.402 72.3086C190.608 72.0554 191.762 71.555 192.862 70.8086L192.749 70.6431ZM189.361 72.1128C187.644 72.473 185.96 72.1672 184.303 71.1892L184.201 71.3615C185.897 72.3622 187.632 72.68 189.402 72.3086L189.361 72.1128ZM184.308 71.1924C183.025 70.3287 182.247 69.2235 181.964 67.8758L181.769 67.9168C182.063 69.3216 182.876 70.4692 184.196 71.3583L184.308 71.1924ZM181.964 67.8758C181.597 66.1264 181.849 64.1773 182.731 62.0248L182.546 61.949C181.654 64.1279 181.391 66.1184 181.769 67.9168L181.964 67.8758ZM182.731 62.0237C183.584 59.8713 184.647 57.8823 185.918 56.0566L185.754 55.9423C184.474 57.7812 183.404 59.7838 182.545 61.95L182.731 62.0237ZM185.919 56.0558C187.162 54.2327 188.266 52.9066 189.229 52.0722L189.098 51.921C188.115 52.772 187.001 54.1144 185.754 55.9431L185.919 56.0558ZM189.23 52.0708C190.188 51.2048 191.304 50.4795 192.577 49.8952L192.493 49.7135C191.203 50.3056 190.071 51.0417 189.096 51.9224L189.23 52.0708ZM192.579 49.8943C193.847 49.2787 195.104 48.8407 196.349 48.5794L196.308 48.3837C195.045 48.6486 193.773 49.0924 192.491 49.7144L192.579 49.8943ZM196.349 48.5794C197.624 48.3118 198.782 48.2591 199.824 48.4186L199.854 48.2209C198.784 48.0571 197.602 48.1122 196.308 48.3837L196.349 48.5794ZM199.824 48.4186C200.339 48.4975 200.748 48.6622 201.057 48.9077C201.365 49.1524 201.579 49.4818 201.697 49.9006L201.889 49.8462C201.761 49.3909 201.525 49.0243 201.181 48.7511C200.839 48.4787 200.394 48.3036 199.854 48.2209L199.824 48.4186ZM201.695 49.8939C201.753 50.1663 201.731 50.4177 201.633 50.6513C201.535 50.8859 201.357 51.1086 201.093 51.318L201.217 51.4747C201.5 51.2499 201.703 51.0016 201.817 50.7286C201.932 50.4546 201.956 50.1616 201.891 49.8529L201.695 49.8939ZM201.094 51.3167C200.585 51.7033 199.622 52.1434 198.193 52.6348L198.258 52.8239C199.688 52.3323 200.678 51.8837 201.215 51.476L201.094 51.3167ZM198.19 52.6358C196.455 53.2904 194.838 54.4844 193.339 56.2118L193.49 56.343C194.973 54.6346 196.564 53.4633 198.261 52.8229L198.19 52.6358ZM193.338 56.2125C191.872 57.9295 190.701 59.6819 189.825 61.4698L190.005 61.5578C190.872 59.7868 192.034 58.0483 193.49 56.3423L193.338 56.2125ZM189.825 61.4698C189.388 62.3624 189.077 63.1273 188.895 63.7635C188.714 64.3975 188.658 64.9139 188.74 65.3046L188.936 65.2635C188.864 64.9202 188.91 64.4412 189.088 63.8184C189.265 63.1979 189.57 62.4446 190.005 61.5578L189.825 61.4698ZM188.74 65.3046C188.782 65.5053 188.872 65.6617 189.022 65.7515C189.171 65.8402 189.358 65.8518 189.57 65.8073L189.529 65.6115C189.344 65.6505 189.214 65.6329 189.125 65.5798C189.038 65.5278 188.971 65.4298 188.936 65.2635L188.74 65.3046ZM189.57 65.8073C190.213 65.6724 191.026 65.1029 192.004 64.1307L191.863 63.9888C190.886 64.9595 190.11 65.4897 189.529 65.6115L189.57 65.8073ZM192.005 64.1298C192.953 63.1636 193.998 62.0495 195.139 60.7877L194.991 60.6535C193.851 61.9138 192.808 63.0258 191.862 63.9897L192.005 64.1298ZM195.141 60.7857C196.575 59.1137 198.051 57.5609 199.567 56.1272L199.429 55.9819C197.908 57.4207 196.428 58.9785 194.989 60.6555L195.141 60.7857ZM199.568 56.1264C201.075 54.6647 202.426 53.8182 203.622 53.5672L203.581 53.3715C202.33 53.6339 200.946 54.5109 199.428 55.9828L199.568 56.1264ZM203.622 53.5672C204.431 53.3975 205.098 53.5998 205.638 54.1731C206.184 54.7531 206.606 55.7198 206.893 57.0893L207.089 57.0482C206.799 55.6652 206.367 54.6557 205.783 54.0359C205.193 53.4094 204.454 53.1882 203.581 53.3715L203.622 53.5672ZM206.893 57.0893C207.052 57.8489 207.177 58.7446 207.266 59.7767L207.465 59.7595C207.376 58.7218 207.25 57.8178 207.089 57.0482L206.893 57.0893ZM207.266 59.7757C207.357 60.9732 207.499 62.0336 207.693 62.9563L207.889 62.9153C207.697 62.003 207.556 60.9516 207.465 59.7605L207.266 59.7757ZM207.693 62.9563C208.15 65.1366 208.904 66.6675 209.968 67.5249L210.093 67.3691C209.082 66.5545 208.343 65.078 207.889 62.9153L207.693 62.9563ZM209.969 67.526C211.069 68.3803 212.586 68.5937 214.498 68.1925L214.457 67.9967C212.576 68.3913 211.128 68.1729 210.092 67.368L209.969 67.526ZM214.498 68.1925L214.819 68.1251L214.778 67.9294L214.457 67.9967L214.498 68.1925ZM214.825 68.1236C219.939 66.6982 225.228 63.8432 230.693 59.5632L230.57 59.4058C225.12 63.6743 219.854 66.5144 214.771 67.9309L214.825 68.1236ZM230.693 59.563C236.149 55.2548 240.622 50.9758 244.111 46.7256L243.957 46.5987C240.478 50.8353 236.016 55.1045 230.569 59.406L230.693 59.563ZM244.112 46.7242L245.475 45.0014L245.318 44.8773L243.956 46.6001L244.112 46.7242ZM245.475 45.0015C246.813 43.3162 247.847 42.0961 248.578 41.3389L248.434 41.2C247.696 41.9644 246.657 43.1909 245.318 44.8772L245.475 45.0015ZM248.58 41.3372C249.299 40.5555 250.028 40.0945 250.766 39.9397L250.725 39.7439C249.933 39.91 249.17 40.4007 248.433 41.2018L248.58 41.3372ZM250.766 39.9397C251.241 39.84 251.786 39.8341 252.404 39.925L252.433 39.7271C251.798 39.6337 251.228 39.6383 250.725 39.7439L250.766 39.9397ZM252.401 39.9245C252.637 39.9659 252.816 40.0462 252.945 40.1599C253.074 40.2728 253.16 40.4241 253.201 40.6197L253.397 40.5786C253.348 40.3461 253.242 40.1544 253.077 40.0096C252.913 39.8656 252.697 39.7734 252.436 39.7275L252.401 39.9245ZM253.201 40.6197C253.284 41.0148 253.172 41.5425 252.839 42.2129L253.018 42.302C253.358 41.6177 253.494 41.0399 253.397 40.5786L253.201 40.6197ZM252.845 42.203C247.684 50.1446 241.879 56.8323 235.43 62.2673L235.559 62.4202C242.024 56.9711 247.842 50.268 253.012 42.312L252.845 42.203ZM235.43 62.2673C228.98 67.7028 222.539 71.4118 216.107 73.3983L216.166 73.5894C222.629 71.5932 229.093 67.8688 235.559 62.4202L235.43 62.2673ZM216.108 73.398C215.389 73.6125 214.695 73.79 214.025 73.9305L214.066 74.1263C214.742 73.9845 215.442 73.8056 216.165 73.5897L216.108 73.398ZM250.899 64.5716L250.83 64.6442L250.832 64.6452L250.899 64.5716ZM251.876 48.2258L251.779 48.2014L251.779 48.2019L251.876 48.2258ZM254.431 40.3138L254.519 40.36L254.52 40.3589L254.431 40.3138ZM259.535 46.3793L259.633 46.3999L259.633 46.3995L259.535 46.3793ZM258.682 51.4437L258.584 51.4642L258.604 51.5621L258.702 51.5415L258.682 51.4437ZM263.247 47.1809L263.32 47.2499L263.321 47.2489L263.247 47.1809ZM281.296 46.4592L281.39 46.4227L281.389 46.4211L281.296 46.4592ZM283.604 51.2916L283.521 51.3478L283.522 51.3499L283.604 51.2916ZM290.412 49.9587L290.353 49.8782L290.351 49.8796L290.412 49.9587ZM300.986 40.3164L301.058 40.386L301.058 40.3859L300.986 40.3164ZM310.853 28.9064L310.776 28.842L310.772 28.8476L310.853 28.9064ZM317.378 26.6753L317.476 26.6547L317.474 26.6483L317.378 26.6753ZM316.113 30.006L316.031 29.9481L316.029 29.9521L316.113 30.006ZM300.562 49.0265L300.63 49.1005L300.63 49.1003L300.562 49.0265ZM281.47 58.0136L281.448 58.1115L281.455 58.1125L281.47 58.0136ZM277.006 54.5438L276.918 54.5915L276.918 54.5919L277.006 54.5438ZM274.627 48.9123L274.723 48.8839L274.721 48.8798L274.627 48.9123ZM273.713 46.6134L273.621 46.652L273.623 46.6571L273.713 46.6134ZM262.767 57.675L262.849 57.7326L262.849 57.7321L262.767 57.675ZM254.198 65.4537C253.008 65.7032 251.934 65.3881 250.967 64.498L250.832 64.6452C251.842 65.5751 252.981 65.9133 254.239 65.6494L254.198 65.4537ZM250.968 64.499C250.631 64.1795 250.374 63.6354 250.209 62.8485L250.013 62.8896C250.182 63.693 250.45 64.2839 250.83 64.6442L250.968 64.499ZM250.209 62.8485C249.93 61.5188 249.934 59.6385 250.228 57.2017C250.521 54.7665 251.103 51.7828 251.973 48.2497L251.779 48.2019C250.908 51.7395 250.324 54.7317 250.029 57.1777C249.735 59.622 249.727 61.5279 250.013 62.8896L250.209 62.8485ZM251.973 48.2502C252.948 44.3731 253.797 41.7465 254.519 40.36L254.342 40.2676C253.608 41.6774 252.754 44.3254 251.779 48.2014L251.973 48.2502ZM254.52 40.3589C255.232 38.949 256.184 38.1324 257.369 37.8836L257.328 37.6879C256.067 37.9525 255.073 38.8212 254.341 40.2687L254.52 40.3589ZM257.369 37.8836C258.087 37.7331 258.647 37.8141 259.066 38.1062C259.486 38.3991 259.783 38.9177 259.944 39.6839L260.14 39.6428C259.973 38.8493 259.658 38.2751 259.18 37.9421C258.701 37.6082 258.079 37.5304 257.328 37.6879L257.369 37.8836ZM259.944 39.6839C260.234 41.069 260.07 43.29 259.437 46.3591L259.633 46.3995C260.266 43.3278 260.439 41.0715 260.14 39.6428L259.944 39.6839ZM259.437 46.3587C259.117 47.8791 258.886 49.0626 258.744 49.9087C258.672 50.3315 258.623 50.6714 258.596 50.9274C258.582 51.0554 258.574 51.1636 258.572 51.2515C258.57 51.3376 258.573 51.4103 258.584 51.4642L258.78 51.4231C258.773 51.3929 258.77 51.3393 258.772 51.2568C258.774 51.1761 258.782 51.0735 258.795 50.9484C258.821 50.6983 258.87 50.363 258.941 49.9419C259.083 49.0998 259.313 47.9193 259.633 46.3999L259.437 46.3587ZM258.702 51.5415L258.748 51.5319L258.707 51.3362L258.661 51.3458L258.702 51.5415ZM258.748 51.5319C258.779 51.5254 258.811 51.51 258.84 51.4937C258.871 51.4763 258.906 51.4532 258.946 51.4252C259.025 51.369 259.127 51.2894 259.25 51.1872C259.497 50.9826 259.835 50.6831 260.264 50.2896L260.129 50.1422C259.701 50.5351 259.366 50.8319 259.123 51.0333C259.001 51.1341 258.904 51.21 258.831 51.2618C258.794 51.2877 258.764 51.3067 258.742 51.3195C258.717 51.3334 258.707 51.3362 258.707 51.3362L258.748 51.5319ZM260.264 50.2896C261.123 49.5011 262.142 48.4877 263.32 47.2498L263.175 47.112C261.999 48.3479 260.983 49.3578 260.129 50.1422L260.264 50.2896ZM263.321 47.2489C267.068 43.2082 270.301 40.9178 273.021 40.347L272.98 40.1513C270.196 40.7355 266.926 43.0663 263.174 47.1129L263.321 47.2489ZM273.021 40.347C274.753 39.9837 276.294 40.3112 277.653 41.3282C279.015 42.3482 280.201 44.0669 281.204 46.4974L281.389 46.4211C280.379 43.9735 279.175 42.2182 277.772 41.1681C276.366 40.1151 274.766 39.7767 272.98 40.1513L273.021 40.347ZM281.203 46.4958C282.095 48.7683 282.868 50.388 283.521 51.3478L283.686 51.2353C283.047 50.2951 282.281 48.6932 281.39 46.4227L281.203 46.4958ZM283.522 51.3499C283.869 51.8325 284.262 52.1736 284.704 52.3654C285.147 52.5576 285.631 52.5968 286.153 52.4872L286.112 52.2914C285.625 52.3936 285.184 52.3557 284.783 52.182C284.382 52.0079 284.015 51.6942 283.685 51.2333L283.522 51.3499ZM286.153 52.4872C287.217 52.264 288.659 51.441 290.474 50.0378L290.351 49.8796C288.539 51.2809 287.128 52.0783 286.112 52.2914L286.153 52.4872ZM290.472 50.0392C293.327 47.936 296.856 44.7174 301.058 40.386L300.914 40.2467C296.715 44.5749 293.195 47.7846 290.353 49.8782L290.472 50.0392ZM301.058 40.3859C305.284 36.0173 308.577 32.2102 310.934 28.9651L310.772 28.8476C308.422 32.0823 305.137 35.8819 300.914 40.2468L301.058 40.3859ZM310.93 28.9706C312.482 27.1175 313.946 26.0606 315.32 25.7722L315.279 25.5765C313.84 25.8785 312.339 26.9762 310.776 28.8422L310.93 28.9706ZM315.32 25.7722C315.875 25.6559 316.306 25.6831 316.625 25.8366C316.939 25.9882 317.161 26.2709 317.281 26.7023L317.474 26.6483C317.341 26.1749 317.089 25.8384 316.711 25.6564C316.337 25.4763 315.856 25.4554 315.279 25.5765L315.32 25.7722ZM317.28 26.6958C317.358 27.0679 317.3 27.5238 317.093 28.0688C316.886 28.6133 316.534 29.2395 316.031 29.9482L316.194 30.0638C316.702 29.3472 317.065 28.7056 317.28 28.1398C317.495 27.5746 317.564 27.0778 317.476 26.6547L317.28 26.6958ZM316.029 29.9521C311.104 37.654 305.926 43.987 300.495 48.9527L300.63 49.1003C306.076 44.1204 311.265 37.7731 316.197 30.0598L316.029 29.9521ZM300.495 48.9524C295.056 53.8892 290.117 56.8156 285.676 57.7472L285.718 57.9429C290.208 57.0008 295.179 54.0481 300.63 49.1005L300.495 48.9524ZM285.676 57.7472C284.188 58.0595 282.791 58.1148 281.485 57.9148L281.455 58.1125C282.788 58.3166 284.209 58.2595 285.718 57.9429L285.676 57.7472ZM281.491 57.9159C279.581 57.4997 278.116 56.363 277.093 54.4958L276.918 54.5919C277.966 56.505 279.477 57.6816 281.448 58.1113L281.491 57.9159ZM277.094 54.4962C276.055 52.5806 275.265 50.7099 274.723 48.8839L274.531 48.9408C275.078 50.7819 275.873 52.6655 276.918 54.5915L277.094 54.4962ZM274.721 48.8798C274.393 47.9249 274.087 47.1544 273.803 46.5698L273.623 46.6571C273.902 47.2316 274.205 47.9938 274.532 48.9449L274.721 48.8798ZM273.806 46.5749C273.675 46.2624 273.539 46.0252 273.393 45.8724C273.246 45.718 273.078 45.6388 272.894 45.6773L272.935 45.873C273.027 45.8538 273.129 45.8854 273.249 46.0104C273.369 46.137 273.494 46.3479 273.621 46.6519L273.806 46.5749ZM272.894 45.6773C272.5 45.7601 271.996 46.0817 271.389 46.6171C270.777 47.1559 270.048 47.9229 269.201 48.9163C267.506 50.9033 265.334 53.8044 262.685 57.618L262.849 57.7321C265.497 53.9204 267.665 51.0256 269.353 49.046C270.197 48.0561 270.92 47.2971 271.521 46.7672C272.126 46.2339 272.596 45.9443 272.935 45.873L272.894 45.6773ZM262.685 57.6175C261.015 59.9927 259.472 61.8321 258.054 63.1383C256.635 64.4456 255.35 65.212 254.198 65.4537L254.239 65.6494C255.441 65.3971 256.759 64.6036 258.189 63.2854C259.621 61.9661 261.175 60.1142 262.849 57.7326L262.685 57.6175Z" fill="black"/>
</svg>
