<svg viewBox="0 0 382 249" fill="none" xmlns="http://www.w3.org/2000/svg">
<path class="last" d="M37.5045 247.007L37.5781 246.939L37.5776 246.938L37.5045 247.007ZM35.9413 238.187L36.0397 238.204L36.04 238.202L35.9413 238.187ZM38.786 229.831L38.6965 229.786L38.6962 229.787L38.786 229.831ZM47.0893 221.239L47.0414 221.151L47.034 221.156L47.0893 221.239ZM47.8766 220.882L47.9091 220.977L47.9118 220.976L47.8766 220.882ZM48.9006 220.284L48.841 220.204L48.8357 220.208L48.9006 220.284ZM50.7455 216.066L50.6484 216.042L50.6484 216.042L50.7455 216.066ZM62.4992 131.698L62.3999 131.686L62.3997 131.687L62.4992 131.698ZM62.9167 128.21L62.8298 128.16L62.8198 128.178L62.8175 128.198L62.9167 128.21ZM65.4354 127.202L65.4171 127.301L65.424 127.302L65.4354 127.202ZM67.5519 128.387L67.4859 128.462L67.4872 128.463L67.5519 128.387ZM69.0351 130.662L69.135 130.663L69.1352 130.652L69.1329 130.641L69.0351 130.662ZM66.7818 156.902L66.6825 156.891L66.6825 156.891L66.7818 156.902ZM57.1391 218.46L57.0426 218.434L57.0037 218.577L57.1509 218.559L57.1391 218.46ZM79.9593 212.858L79.9261 212.763L79.9256 212.763L79.9593 212.858ZM95.6536 206.164L95.6089 206.075L95.6085 206.075L95.6536 206.164ZM107.729 199.799L107.682 199.71L107.678 199.712L107.729 199.799ZM109.82 199.264L109.881 199.185L109.875 199.18L109.82 199.264ZM107.302 206.211L107.242 206.13L107.241 206.131L107.302 206.211ZM83.901 217.491L83.8672 217.397L83.8668 217.397L83.901 217.491ZM55.9324 225.035L55.9184 224.936L55.8665 224.944L55.843 224.991L55.9324 225.035ZM53.2746 231.772L53.1801 231.739L53.1797 231.74L53.2746 231.772ZM44.4017 247.236L44.4537 247.321L44.4568 247.319L44.4017 247.236ZM43.3724 241.417L43.3102 241.338L43.3065 241.342L43.3724 241.417ZM45.8505 236.107L45.944 236.143L45.9446 236.141L45.8505 236.107ZM43.7025 231.577L43.6138 231.531L43.6133 231.532L43.7025 231.577ZM41.985 236.631L41.8868 236.612L41.8866 236.613L41.985 236.631ZM41.6983 248.276C40.0818 248.615 38.7126 248.171 37.5781 246.939L37.431 247.074C38.6124 248.358 40.0527 248.825 41.7393 248.471L41.6983 248.276ZM37.5776 246.938C36.7683 246.073 36.2228 244.977 35.9437 243.646L35.748 243.687C36.0335 245.048 36.5939 246.179 37.4315 247.075L37.5776 246.938ZM35.9437 243.646C35.6263 242.133 35.6567 240.32 36.0397 238.204L35.8429 238.169C35.4569 240.301 35.4237 242.142 35.748 243.687L35.9437 243.646ZM36.04 238.202C36.4373 235.704 37.3815 232.929 38.8758 229.874L38.6962 229.787C37.1959 232.853 36.2437 235.648 35.8425 238.171L36.04 238.202ZM38.8755 229.875C40.393 226.829 43.1459 223.978 47.1447 221.323L47.034 221.156C43.0173 223.823 40.2347 226.699 38.6965 229.786L38.8755 229.875ZM47.1371 221.327C47.4202 221.173 47.6774 221.057 47.9091 220.977L47.8441 220.788C47.5993 220.872 47.3317 220.994 47.0416 221.151L47.1371 221.327ZM47.9118 220.976C48.3068 220.828 48.6584 220.623 48.9655 220.361L48.8357 220.208C48.5471 220.455 48.2159 220.648 47.8414 220.789L47.9118 220.976ZM48.9601 220.365C49.3134 220.104 49.6416 219.61 49.951 218.902C50.2617 218.192 50.5587 217.253 50.8427 216.089L50.6484 216.042C50.3658 217.2 50.0721 218.126 49.7678 218.822C49.4622 219.521 49.1513 219.975 48.8412 220.204L48.9601 220.365ZM50.8426 216.09C53.9964 203.255 57.9149 175.125 62.5986 131.709L62.3997 131.687C57.7157 175.107 53.7984 203.223 50.6484 216.042L50.8426 216.09ZM62.5984 131.71L63.016 128.221L62.8175 128.198L62.3999 131.686L62.5984 131.71ZM63.0037 128.259C63.3432 127.661 63.7721 127.318 64.2876 127.21L64.2465 127.014C63.6609 127.137 63.1897 127.526 62.8298 128.16L63.0037 128.259ZM64.2876 127.21C64.3808 127.19 64.5205 127.186 64.712 127.201C64.902 127.215 65.1368 127.248 65.4171 127.3L65.4537 127.104C65.1692 127.051 64.9269 127.017 64.7274 127.001C64.5294 126.986 64.3674 126.989 64.2465 127.014L64.2876 127.21ZM65.424 127.302C65.9818 127.366 66.6681 127.744 67.4859 128.462L67.6178 128.311C66.7917 127.586 66.067 127.174 65.4469 127.103L65.424 127.302ZM67.4872 128.463C68.2904 129.143 68.7696 129.883 68.9372 130.682L69.1329 130.641C68.954 129.788 68.4444 129.012 67.6165 128.31L67.4872 128.463ZM68.9351 130.66C68.8575 136.067 68.1069 144.81 66.6825 156.891L66.8811 156.914C68.3056 144.833 69.0573 136.081 69.135 130.663L68.9351 130.66ZM66.6825 156.891C65.2823 168.934 63.6673 180.942 61.8375 192.916L62.0352 192.946C63.8654 180.97 65.4807 168.959 66.8811 156.914L66.6825 156.891ZM61.8375 192.916C60.0076 204.89 58.4092 213.395 57.0426 218.434L57.2356 218.486C58.6054 213.436 60.2052 204.921 62.0352 192.946L61.8375 192.916ZM57.1509 218.559C59.9883 218.22 62.7847 217.761 65.5402 217.183L65.4991 216.987C62.7494 217.564 59.9588 218.022 57.1272 218.361L57.1509 218.559ZM65.5402 217.183C69.797 216.289 74.6147 214.879 79.993 212.952L79.9256 212.763C74.5534 214.689 69.7447 216.096 65.4991 216.987L65.5402 217.183ZM79.9925 212.952C85.3783 211.055 90.6137 208.822 95.6987 206.253L95.6085 206.075C90.5312 208.64 85.3037 210.869 79.9261 212.763L79.9925 212.952ZM95.6984 206.253C101.189 203.505 105.216 201.382 107.779 199.885L107.678 199.712C105.121 201.206 101.099 203.326 95.6089 206.075L95.6984 206.253ZM107.775 199.887C108.377 199.57 108.852 199.378 109.206 199.304L109.164 199.108C108.784 199.188 108.289 199.391 107.682 199.71L107.775 199.887ZM109.206 199.304C109.47 199.248 109.649 199.272 109.765 199.348L109.875 199.18C109.694 199.063 109.451 199.048 109.164 199.108L109.206 199.304ZM109.759 199.343C109.957 199.496 110.123 199.828 110.238 200.374L110.434 200.333C110.317 199.778 110.139 199.384 109.881 199.185L109.759 199.343ZM110.238 200.374L110.459 201.429L110.655 201.388L110.434 200.333L110.238 200.374ZM110.459 201.429C110.596 202.082 110.41 202.799 109.877 203.585C109.344 204.372 108.467 205.221 107.242 206.13L107.362 206.291C108.595 205.375 109.491 204.511 110.043 203.697C110.595 202.883 110.807 202.111 110.655 201.388L110.459 201.429ZM107.241 206.131C104.827 207.974 101.561 209.871 97.4394 211.821L97.5249 212.001C101.653 210.049 104.933 208.145 107.363 206.29L107.241 206.131ZM97.4394 211.821C93.3179 213.77 88.7939 215.629 83.8672 217.397L83.9347 217.585C88.8667 215.815 93.3968 213.954 97.5249 212.001L97.4394 211.821ZM83.8668 217.397C75.8015 220.334 68.4382 222.501 61.7766 223.899L61.8177 224.094C68.4906 222.694 75.8632 220.524 83.9352 217.585L83.8668 217.397ZM61.7766 223.899C59.7294 224.328 57.7767 224.674 55.9184 224.936L55.9463 225.134C57.8095 224.871 59.7666 224.525 61.8177 224.094L61.7766 223.899ZM55.843 224.991C55.142 226.389 54.2544 228.639 53.1801 231.739L53.3691 231.804C54.4429 228.706 55.327 226.466 56.0218 225.08L55.843 224.991ZM53.1797 231.74C51.8222 235.837 50.4059 239.17 48.9316 241.739C47.4566 244.31 45.9273 246.11 44.3467 247.152L44.4568 247.319C46.074 246.253 47.6223 244.423 49.105 241.839C50.5883 239.254 52.0096 235.908 53.3696 231.803L53.1797 231.74ZM44.3498 247.15C43.3936 247.731 42.5099 248.105 41.6983 248.276L41.7393 248.471C42.5792 248.295 43.4842 247.91 44.4537 247.321L44.3498 247.15ZM42.5161 242.13C42.6144 242.109 42.7404 242.039 42.8869 241.936C43.0372 241.831 43.2212 241.682 43.4383 241.492L43.3065 241.342C43.092 241.53 42.914 241.673 42.7721 241.772C42.6264 241.874 42.5297 241.923 42.4751 241.934L42.5161 242.13ZM43.4345 241.495C43.5594 241.396 43.701 241.206 43.8595 240.941C44.0199 240.672 44.2038 240.315 44.411 239.871C44.8256 238.983 45.3366 237.74 45.944 236.143L45.757 236.072C45.1503 237.667 44.6413 238.905 44.2298 239.787C44.024 240.228 43.8433 240.578 43.6878 240.838C43.5303 241.102 43.4043 241.264 43.3102 241.339L43.4345 241.495ZM45.9446 236.141C46.6407 234.206 47.1466 232.673 47.4618 231.542C47.6194 230.976 47.7298 230.51 47.7923 230.143C47.8541 229.78 47.8715 229.502 47.8336 229.321L47.6378 229.362C47.6673 229.503 47.6567 229.748 47.5951 230.109C47.5342 230.466 47.4258 230.926 47.2691 231.488C46.9559 232.612 46.4519 234.14 45.7564 236.074L45.9446 236.141ZM47.8336 229.321C47.7819 229.075 47.6736 228.887 47.4959 228.779C47.3196 228.671 47.095 228.655 46.8368 228.71L46.8778 228.905C47.1089 228.857 47.2754 228.879 47.392 228.95C47.5071 229.02 47.5932 229.15 47.6378 229.362L47.8336 229.321ZM46.8368 228.71C45.5134 228.987 44.4411 229.937 43.6138 231.531L43.7913 231.623C44.6013 230.063 45.6322 229.167 46.8778 228.905L46.8368 228.71ZM43.6133 231.532C42.7968 233.147 42.2213 234.841 41.8868 236.612L42.0833 236.65C42.4143 234.897 42.9837 233.221 43.7918 231.622L43.6133 231.532ZM41.8866 236.613C41.5305 238.576 41.4624 240.105 41.691 241.195L41.8867 241.154C41.6661 240.103 41.7288 238.603 42.0834 236.649L41.8866 236.613ZM41.691 241.195C41.7595 241.521 41.8562 241.772 41.9894 241.934C42.0571 242.016 42.136 242.077 42.227 242.112C42.3184 242.146 42.4158 242.151 42.5161 242.13L42.4751 241.934C42.4072 241.948 42.349 241.944 42.2974 241.924C42.2454 241.905 42.1939 241.868 42.1438 241.807C42.0414 241.683 41.953 241.47 41.8867 241.154L41.691 241.195ZM125.799 195.097L125.818 194.999L125.817 194.999L125.799 195.097ZM125.631 175.351L125.716 175.405L125.717 175.403L125.631 175.351ZM129.501 169.367L129.583 169.424L129.583 169.424L129.501 169.367ZM135.303 164.605L135.245 164.687L135.248 164.689L135.303 164.605ZM137.146 166.086L137.08 166.161L137.081 166.163L137.146 166.086ZM137.243 168.604L137.156 168.554L137.151 168.566L137.243 168.604ZM136.888 169.876L136.788 169.865L136.783 169.909L136.813 169.943L136.888 169.876ZM150.617 170.253L150.672 170.336L150.673 170.335L150.617 170.253ZM160.492 161.619L160.421 161.549L160.42 161.549L160.492 161.619ZM166.223 161.087L166.316 161.126L166.318 161.12L166.223 161.087ZM158.904 171.627L158.974 171.698L158.975 171.697L158.904 171.627ZM146.821 179.096L146.85 179.191L146.854 179.19L146.821 179.096ZM144.116 179.903L144.16 179.993L144.167 179.989L144.116 179.903ZM143.498 180.607L143.408 180.562L143.406 180.568L143.498 180.607ZM142.898 182.314L142.992 182.347L142.993 182.344L142.898 182.314ZM138.487 189.37L138.562 189.436L138.562 189.436L138.487 189.37ZM131.483 194.336L131.445 194.243L131.444 194.243L131.483 194.336ZM131.966 187.05L132.038 187.119L132.039 187.118L131.966 187.05ZM132.92 178.133L132.95 178.037L132.878 178.015L132.837 178.078L132.92 178.133ZM132.522 178.743L132.604 178.8L132.605 178.798L132.522 178.743ZM129.935 183.309L129.847 183.262L129.845 183.266L129.935 183.309ZM129.125 194.968C128.006 195.203 126.904 195.213 125.818 194.999L125.78 195.195C126.893 195.414 128.021 195.404 129.166 195.163L129.125 194.968ZM125.817 194.999C124.707 194.792 123.636 194.263 122.603 193.405L122.475 193.559C123.529 194.435 124.632 194.982 125.781 195.195L125.817 194.999ZM122.603 193.405C121.576 192.553 120.928 191.482 120.657 190.189L120.461 190.23C120.742 191.568 121.414 192.678 122.475 193.559L122.603 193.405ZM120.657 190.189C120.302 188.501 120.54 186.426 121.383 183.958C122.225 181.492 123.668 178.641 125.716 175.405L125.547 175.298C123.494 178.542 122.042 181.407 121.193 183.894C120.345 186.379 120.096 188.493 120.461 190.23L120.657 190.189ZM125.717 175.403C127.019 173.247 128.308 171.254 129.583 169.424L129.418 169.31C128.141 171.144 126.85 173.141 125.546 175.3L125.717 175.403ZM129.583 169.424C130.709 167.8 131.652 166.563 132.411 165.713C132.79 165.288 133.122 164.962 133.406 164.732C133.692 164.5 133.922 164.374 134.097 164.338L134.056 164.142C133.834 164.189 133.574 164.339 133.28 164.576C132.984 164.816 132.645 165.151 132.261 165.58C131.495 166.439 130.547 167.683 129.418 169.31L129.583 169.424ZM134.097 164.338C134.426 164.269 134.806 164.375 135.245 164.687L135.361 164.524C134.898 164.195 134.461 164.057 134.056 164.142L134.097 164.338ZM135.248 164.689C135.686 164.975 136.296 165.464 137.08 166.161L137.212 166.012C136.427 165.313 135.808 164.816 135.357 164.521L135.248 164.689ZM137.081 166.163C137.341 166.382 137.49 166.617 137.543 166.865L137.738 166.824C137.675 166.522 137.495 166.251 137.211 166.01L137.081 166.163ZM137.543 166.865C137.645 167.353 137.523 167.914 137.157 168.555L137.33 168.654C137.711 167.988 137.854 167.376 137.738 166.824L137.543 166.865ZM137.151 168.566C136.957 169.028 136.835 169.461 136.788 169.865L136.987 169.888C137.031 169.507 137.146 169.092 137.335 168.643L137.151 168.566ZM136.813 169.943C139.096 172.527 141.837 173.49 145.025 172.821L144.984 172.626C141.872 173.279 139.202 172.344 136.963 169.81L136.813 169.943ZM145.025 172.821C146.905 172.427 148.788 171.597 150.672 170.336L150.561 170.17C148.694 171.419 146.835 172.237 144.984 172.626L145.025 172.821ZM150.673 170.335C153.561 168.385 156.858 165.502 160.564 161.689L160.42 161.549C156.72 165.357 153.434 168.23 150.561 170.17L150.673 170.335ZM160.563 161.689C161.655 160.582 162.534 159.741 163.2 159.164C163.533 158.876 163.811 158.655 164.035 158.5C164.262 158.343 164.424 158.262 164.525 158.241L164.484 158.045C164.34 158.075 164.15 158.177 163.921 158.336C163.689 158.496 163.404 158.722 163.069 159.013C162.397 159.595 161.514 160.441 160.421 161.549L160.563 161.689ZM164.525 158.241C164.92 158.158 165.278 158.257 165.609 158.547L165.741 158.397C165.367 158.068 164.945 157.948 164.484 158.045L164.525 158.241ZM165.609 158.547C165.945 158.842 166.158 159.207 166.25 159.644L166.445 159.603C166.345 159.123 166.109 158.72 165.741 158.397L165.609 158.547ZM166.25 159.644C166.342 160.083 166.303 160.552 166.129 161.054L166.318 161.12C166.502 160.589 166.546 160.083 166.445 159.603L166.25 159.644ZM166.131 161.048C164.578 164.714 162.146 168.217 158.833 171.557L158.975 171.697C162.303 168.343 164.751 164.819 166.316 161.126L166.131 161.048ZM158.833 171.556C155.517 174.861 151.502 177.343 146.787 179.001L146.854 179.19C151.595 177.523 155.636 175.026 158.974 171.698L158.833 171.556ZM146.791 179C146.133 179.202 145.577 179.35 145.122 179.446L145.163 179.641C145.626 179.544 146.188 179.394 146.85 179.191L146.791 179ZM145.122 179.446C144.688 179.537 144.334 179.659 144.066 179.816L144.167 179.989C144.41 179.847 144.741 179.73 145.163 179.641L145.122 179.446ZM144.072 179.813C143.813 179.939 143.594 180.195 143.408 180.562L143.587 180.652C143.763 180.304 143.956 180.091 144.16 179.993L144.072 179.813ZM143.406 180.568C143.254 180.923 143.053 181.496 142.802 182.283L142.993 182.344C143.243 181.557 143.442 180.992 143.59 180.646L143.406 180.568ZM142.803 182.28C142.009 184.54 140.547 186.881 138.412 189.304L138.562 189.436C140.708 187 142.187 184.637 142.992 182.347L142.803 182.28ZM138.412 189.303C136.433 191.529 134.111 193.176 131.445 194.243L131.52 194.429C134.215 193.349 136.563 191.685 138.562 189.436L138.412 189.303ZM131.444 194.243C130.687 194.561 129.914 194.802 129.125 194.968L129.166 195.163C129.967 194.995 130.752 194.75 131.521 194.428L131.444 194.243ZM128.51 189.985C128.872 189.909 129.346 189.623 129.926 189.149C130.511 188.672 131.215 187.995 132.038 187.118L131.893 186.982C131.072 187.855 130.375 188.525 129.8 188.994C129.222 189.466 128.78 189.724 128.469 189.789L128.51 189.985ZM132.039 187.118C133.139 185.922 133.893 184.667 134.297 183.353L134.106 183.295C133.712 184.575 132.976 185.804 131.892 186.982L132.039 187.118ZM134.297 183.353C134.698 182.047 134.805 180.922 134.608 179.982L134.412 180.023C134.6 180.918 134.501 182.007 134.106 183.295L134.297 183.353ZM134.608 179.982C134.396 178.973 133.844 178.317 132.95 178.037L132.89 178.228C133.706 178.484 134.213 179.075 134.412 180.023L134.608 179.982ZM132.837 178.078L132.438 178.688L132.605 178.798L133.004 178.187L132.837 178.078ZM132.439 178.686C131.921 179.439 131.057 180.966 129.847 183.262L130.024 183.356C131.234 181.057 132.094 179.541 132.604 178.8L132.439 178.686ZM129.845 183.266C129.066 184.883 128.503 186.207 128.156 187.235C127.983 187.749 127.864 188.191 127.799 188.56C127.735 188.928 127.723 189.23 127.772 189.463L127.967 189.422C127.926 189.226 127.933 188.952 127.996 188.594C128.058 188.238 128.175 187.807 128.346 187.299C128.688 186.282 129.248 184.967 130.025 183.352L129.845 183.266ZM127.772 189.463C127.813 189.659 127.892 189.816 128.024 189.91C128.157 190.005 128.325 190.024 128.51 189.985L128.469 189.789C128.318 189.821 128.214 189.8 128.141 189.747C128.065 189.693 128.003 189.592 127.967 189.422L127.772 189.463ZM219.116 173.745L219.188 173.675L219.187 173.675L219.116 173.745ZM197.203 166.321L197.13 166.253L197.129 166.254L197.203 166.321ZM185.942 171.318L185.854 171.366L185.858 171.372L185.942 171.318ZM184.711 167.505L184.808 167.479L184.807 167.478L184.711 167.505ZM180.372 164.632L180.299 164.564L180.298 164.565L180.372 164.632ZM176.18 169.535L176.256 169.601L176.258 169.598L176.18 169.535ZM165.023 175.707L164.925 175.728L164.925 175.731L165.023 175.707ZM165.194 172.415L165.293 172.426L165.293 172.424L165.194 172.415ZM165.975 166.551L166.074 166.567L166.074 166.566L165.975 166.551ZM168.013 159.37L168.082 159.442L168.085 159.439L168.013 159.37ZM171.545 158.629L171.487 158.71L171.491 158.713L171.545 158.629ZM172.412 162.758L172.312 162.748L172.312 162.757L172.412 162.758ZM172.384 164.68L172.284 164.678L172.28 164.906L172.45 164.754L172.384 164.68ZM176.459 161.047L176.393 160.972L176.392 160.972L176.459 161.047ZM188.523 157.366L188.463 157.446L188.466 157.448L188.523 157.366ZM191.447 163.314L191.354 163.352L191.358 163.36L191.447 163.314ZM197.179 158.902L197.107 158.833L197.103 158.837L197.179 158.902ZM216.962 150.01L217.042 149.949L217.036 149.943L216.962 150.01ZM220.64 158.865L220.736 158.838L220.736 158.837L220.64 158.865ZM224.687 167.882L224.615 167.952L224.616 167.952L224.687 167.882ZM267.474 142.62L267.546 142.689L267.548 142.688L267.474 142.62ZM277.715 135.73L277.635 135.79L277.637 135.792L277.715 135.73ZM277.014 140.379L277.097 140.435L277.097 140.435L277.014 140.379ZM271.94 146.329L271.868 146.26L271.868 146.26L271.94 146.329ZM248.709 166.865L248.767 166.947L248.767 166.947L248.709 166.865ZM229.83 176.184C225.297 177.136 221.757 176.292 219.188 173.675L219.045 173.815C221.674 176.493 225.29 177.341 229.871 176.38L229.83 176.184ZM219.187 173.675C216.409 170.864 214.401 166.534 213.171 160.672L212.975 160.713C214.209 166.595 216.229 170.967 219.045 173.815L219.187 173.675ZM213.171 160.672C212.638 158.134 212.185 156.431 211.811 155.572L211.628 155.652C211.993 156.49 212.442 158.173 212.975 160.713L213.171 160.672ZM211.811 155.572C211.623 155.139 211.398 154.82 211.133 154.625C210.864 154.428 210.56 154.364 210.227 154.434L210.268 154.63C210.547 154.571 210.793 154.623 211.015 154.786C211.241 154.952 211.447 155.236 211.628 155.652L211.811 155.572ZM210.227 154.434C209.77 154.53 209.157 154.855 208.394 155.393C207.628 155.933 206.7 156.695 205.612 157.679C203.435 159.647 200.607 162.505 197.13 166.253L197.276 166.389C200.752 162.643 203.575 159.79 205.746 157.828C206.831 156.847 207.752 156.09 208.509 155.556C209.269 155.02 209.854 154.717 210.268 154.63L210.227 154.434ZM197.129 166.254C195.47 168.068 193.956 169.484 192.589 170.501C191.221 171.52 190.005 172.136 188.939 172.359L188.98 172.555C190.085 172.323 191.329 171.689 192.708 170.662C194.089 169.634 195.612 168.209 197.277 166.389L197.129 166.254ZM188.939 172.359C188.279 172.498 187.712 172.472 187.231 172.291C186.751 172.11 186.349 171.77 186.026 171.264L185.858 171.372C186.201 171.908 186.634 172.279 187.16 172.478C187.685 172.676 188.293 172.699 188.98 172.555L188.939 172.359ZM186.03 171.271C185.904 171.036 185.738 170.604 185.533 169.968C185.329 169.335 185.087 168.505 184.808 167.479L184.615 167.532C184.894 168.559 185.137 169.392 185.343 170.03C185.548 170.665 185.718 171.113 185.854 171.365L186.03 171.271ZM184.807 167.478C184.439 166.181 184.082 165.009 183.734 163.963L183.544 164.026C183.891 165.069 184.248 166.238 184.615 167.533L184.807 167.478ZM183.734 163.963C183.56 163.438 183.388 163.044 183.217 162.788C183.052 162.54 182.86 162.379 182.639 162.426L182.681 162.621C182.766 162.603 182.89 162.656 183.051 162.898C183.207 163.132 183.372 163.506 183.544 164.026L183.734 163.963ZM182.639 162.426C182.548 162.445 182.433 162.512 182.303 162.607C182.169 162.705 182.006 162.843 181.814 163.02C181.43 163.374 180.925 163.889 180.299 164.564L180.446 164.7C181.07 164.027 181.571 163.516 181.949 163.167C182.139 162.993 182.296 162.86 182.421 162.768C182.551 162.674 182.635 162.631 182.681 162.621L182.639 162.426ZM180.298 164.565C179.078 165.908 177.679 167.543 176.103 169.471L176.258 169.598C177.832 167.672 179.229 166.039 180.446 164.699L180.298 164.565ZM176.105 169.469C174.097 171.756 172.337 173.523 170.826 174.771C169.311 176.02 168.056 176.741 167.056 176.951L167.097 177.147C168.146 176.927 169.432 176.18 170.953 174.925C172.476 173.668 174.244 171.892 176.256 169.601L176.105 169.469ZM167.056 176.951C166.521 177.063 166.105 177.007 165.792 176.803C165.478 176.598 165.251 176.232 165.12 175.684L164.925 175.731C165.063 176.308 165.311 176.728 165.682 176.97C166.054 177.213 166.53 177.265 167.097 177.147L167.056 176.951ZM165.121 175.687C165.079 175.487 165.069 175.118 165.098 174.568C165.126 174.023 165.191 173.309 165.293 172.426L165.095 172.403C164.992 173.288 164.927 174.006 164.898 174.558C164.87 175.106 164.877 175.5 164.925 175.728L165.121 175.687ZM165.293 172.424C165.467 170.666 165.727 168.714 166.074 166.567L165.877 166.535C165.529 168.685 165.268 170.642 165.094 172.405L165.293 172.424ZM166.074 166.566C166.391 164.425 166.703 162.8 167.009 161.687L166.816 161.634C166.507 162.758 166.193 164.393 165.876 166.536L166.074 166.566ZM167.009 161.687C167.316 160.572 167.677 159.831 168.082 159.442L167.944 159.298C167.498 159.726 167.126 160.512 166.816 161.634L167.009 161.687ZM168.085 159.439C168.488 159.017 169.015 158.735 169.671 158.598L169.63 158.402C168.94 158.547 168.375 158.846 167.94 159.301L168.085 159.439ZM169.671 158.598C170.554 158.413 171.147 158.465 171.487 158.71L171.604 158.548C171.191 158.249 170.521 158.215 169.63 158.402L169.671 158.598ZM171.491 158.713C171.871 158.961 172.123 159.359 172.241 159.92L172.437 159.879C172.31 159.278 172.034 158.829 171.6 158.545L171.491 158.713ZM172.241 159.92C172.398 160.671 172.423 161.613 172.312 162.748L172.511 162.768C172.624 161.621 172.6 160.657 172.437 159.879L172.241 159.92ZM172.312 162.757L172.284 164.678L172.484 164.681L172.512 162.759L172.312 162.757ZM172.45 164.754L176.526 161.121L176.392 160.972L172.317 164.605L172.45 164.754ZM176.525 161.122C179.377 158.611 181.906 157.132 184.114 156.669L184.073 156.473C181.815 156.947 179.255 158.452 176.393 160.972L176.525 161.122ZM184.114 156.669C185.835 156.308 187.281 156.571 188.463 157.446L188.582 157.286C187.345 156.37 185.838 156.103 184.073 156.473L184.114 156.669ZM188.466 157.448C189.671 158.287 190.503 159.759 190.949 161.886L191.145 161.845C190.693 159.69 189.842 158.163 188.58 157.284L188.466 157.448ZM190.949 161.886C191.085 162.53 191.219 163.02 191.354 163.352L191.54 163.276C191.411 162.961 191.28 162.485 191.145 161.845L190.949 161.886ZM191.358 163.36C191.445 163.53 191.557 163.659 191.697 163.735C191.838 163.811 191.998 163.827 192.17 163.791L192.129 163.596C191.995 163.624 191.885 163.609 191.792 163.559C191.698 163.508 191.611 163.415 191.536 163.268L191.358 163.36ZM192.17 163.791C192.382 163.747 192.644 163.607 192.952 163.385C193.263 163.162 193.628 162.849 194.049 162.448C194.891 161.646 195.96 160.485 197.255 158.967L197.103 158.837C195.81 160.353 194.746 161.508 193.911 162.303C193.494 162.701 193.135 163.007 192.835 163.223C192.533 163.44 192.299 163.56 192.129 163.596L192.17 163.791ZM197.251 158.971C203.064 152.899 207.88 149.479 211.701 148.677L211.66 148.482C207.774 149.297 202.922 152.758 197.107 158.833L197.251 158.971ZM211.701 148.677C213.907 148.214 215.628 148.687 216.888 150.077L217.036 149.943C215.719 148.489 213.92 148.007 211.66 148.482L211.701 148.677ZM216.883 150.07C217.358 150.692 217.947 151.835 218.649 153.507L218.834 153.429C218.131 151.756 217.534 150.593 217.041 149.949L216.883 150.07ZM218.649 153.507C219.35 155.176 219.981 156.971 220.544 158.893L220.736 158.837C220.171 156.908 219.537 155.106 218.834 153.429L218.649 153.507ZM220.544 158.892C221.812 163.416 223.167 166.444 224.615 167.952L224.759 167.813C223.349 166.345 222.005 163.361 220.736 158.838L220.544 158.892ZM224.616 167.952C226.07 169.442 228.121 169.898 230.742 169.348L230.701 169.153C228.124 169.693 226.151 169.238 224.759 167.812L224.616 167.952ZM230.742 169.348C234.862 168.484 240.35 165.569 247.2 160.618L247.083 160.456C240.237 165.403 234.778 168.297 230.701 169.153L230.742 169.348ZM247.2 160.618C254.054 155.664 260.836 149.688 267.546 142.689L267.402 142.551C260.699 149.542 253.926 155.51 247.083 160.456L247.2 160.618ZM267.548 142.688C269.691 140.355 271.484 138.569 272.927 137.327C273.648 136.706 274.28 136.222 274.824 135.875C275.369 135.527 275.819 135.32 276.176 135.245L276.135 135.049C275.743 135.131 275.269 135.353 274.716 135.707C274.162 136.061 273.522 136.551 272.796 137.175C271.345 138.424 269.546 140.217 267.4 142.553L267.548 142.688ZM276.176 135.245C276.482 135.181 276.753 135.196 276.992 135.285C277.231 135.375 277.446 135.541 277.635 135.79L277.795 135.669C277.587 135.395 277.343 135.203 277.062 135.098C276.782 134.993 276.471 134.978 276.135 135.049L276.176 135.245ZM277.637 135.792C277.888 136.109 278.053 136.458 278.133 136.839L278.329 136.798C278.242 136.385 278.063 136.008 277.793 135.668L277.637 135.792ZM278.133 136.839C278.31 137.684 277.926 138.84 276.931 140.323L277.097 140.435C278.097 138.945 278.524 137.728 278.329 136.798L278.133 136.839ZM276.931 140.323C275.963 141.765 274.277 143.744 271.868 146.26L272.013 146.398C274.423 143.88 276.119 141.892 277.097 140.435L276.931 140.323ZM271.868 146.26C263.781 154.723 256.042 161.564 248.652 166.784L248.767 166.947C256.171 161.718 263.919 154.868 272.013 146.398L271.868 146.26ZM248.652 166.783C241.283 171.967 235.01 175.098 229.83 176.184L229.871 176.38C235.09 175.285 241.389 172.137 248.767 166.947L248.652 166.783ZM296.186 158.963L296.161 159.06L296.162 159.06L296.186 158.963ZM291.66 155.65L291.574 155.702L291.576 155.705L291.66 155.65ZM288.941 148.174L289.039 148.151L289.002 147.995L288.878 148.097L288.941 148.174ZM286.738 150.456L286.814 150.522L286.814 150.521L286.738 150.456ZM281.225 155.684L281.282 155.767L281.283 155.766L281.225 155.684ZM272.672 156.234L272.616 156.317L272.621 156.32L272.672 156.234ZM271.058 146.945L271.151 146.983L271.151 146.982L271.058 146.945ZM274.256 140.958L274.338 141.015L274.339 141.014L274.256 140.958ZM277.583 136.955L277.649 137.03L277.65 137.029L277.583 136.955ZM280.955 134.763L280.996 134.854L280.998 134.853L280.955 134.763ZM290.213 134.832L290.311 134.811L290.309 134.804L290.213 134.832ZM289.575 136.355L289.635 136.434L289.637 136.433L289.575 136.355ZM286.645 137.688L286.613 137.593L286.61 137.594L286.645 137.688ZM281.834 141.236L281.758 141.17L281.758 141.171L281.834 141.236ZM280.354 149.018L280.424 149.089L280.425 149.088L280.354 149.018ZM283.485 145.679L283.559 145.746L283.561 145.744L283.485 145.679ZM287.918 141.013L287.987 141.085L287.987 141.085L287.918 141.013ZM295.786 144.726L295.885 144.719L295.885 144.718L295.786 144.726ZM298.451 152.405L298.388 152.483L298.389 152.484L298.451 152.405ZM303.218 152.985L303.239 153.084L303.245 153.082L303.218 152.985ZM319.051 144.443L319.113 144.521L319.113 144.521L319.051 144.443ZM332.454 131.62L332.531 131.684L332.532 131.682L332.454 131.62ZM333.817 129.897L333.738 129.835L333.738 129.835L333.817 129.897ZM336.926 126.228L336.998 126.297L337 126.295L336.926 126.228ZM340.838 124.784L340.855 124.686L340.853 124.685L340.838 124.784ZM341.348 127.216L341.433 127.27L341.438 127.26L341.348 127.216ZM304.557 158.452L304.585 158.548L304.586 158.548L304.557 158.452ZM302.445 158.889C300.194 159.361 298.117 159.352 296.211 158.866L296.162 159.06C298.102 159.555 300.211 159.562 302.486 159.084L302.445 158.889ZM296.212 158.866C294.344 158.376 292.856 157.287 291.743 155.595L291.576 155.705C292.714 157.436 294.244 158.556 296.161 159.06L296.212 158.866ZM291.745 155.598C290.732 153.941 289.829 151.461 289.039 148.151L288.844 148.197C289.636 151.515 290.545 154.019 291.574 155.702L291.745 155.598ZM288.878 148.097C288.299 148.574 287.56 149.34 286.662 150.391L286.814 150.521C287.71 149.472 288.44 148.717 289.005 148.251L288.878 148.097ZM286.663 150.391C285.919 151.248 285.086 152.14 284.164 153.066L284.306 153.207C285.23 152.278 286.066 151.383 286.814 150.522L286.663 150.391ZM284.164 153.066C283.246 153.99 282.247 154.836 281.168 155.603L281.283 155.766C282.372 154.992 283.379 154.139 284.306 153.207L284.164 153.066ZM281.169 155.601C280.089 156.334 278.96 156.824 277.781 157.071L277.822 157.267C279.028 157.014 280.182 156.513 281.282 155.767L281.169 155.601ZM277.781 157.071C276.064 157.431 274.38 157.125 272.722 156.148L272.621 156.32C274.317 157.32 276.052 157.638 277.822 157.267L277.781 157.071ZM272.728 156.151C271.445 155.287 270.667 154.182 270.384 152.834L270.188 152.875C270.483 154.28 271.295 155.427 272.616 156.317L272.728 156.151ZM270.384 152.834C270.017 151.085 270.269 149.136 271.151 146.983L270.965 146.907C270.073 149.086 269.811 151.077 270.188 152.875L270.384 152.834ZM271.151 146.982C272.004 144.83 273.067 142.841 274.338 141.015L274.174 140.901C272.893 142.739 271.824 144.742 270.965 146.908L271.151 146.982ZM274.339 141.014C275.582 139.191 276.685 137.865 277.649 137.03L277.518 136.879C276.535 137.73 275.421 139.073 274.173 140.901L274.339 141.014ZM277.65 137.029C278.608 136.163 279.723 135.438 280.996 134.853L280.913 134.672C279.623 135.264 278.49 136 277.516 136.881L277.65 137.029ZM280.998 134.853C282.267 134.237 283.524 133.799 284.769 133.538L284.728 133.342C283.465 133.607 282.193 134.051 280.911 134.673L280.998 134.853ZM284.769 133.538C286.044 133.27 287.202 133.217 288.244 133.377L288.274 133.179C287.204 133.015 286.021 133.07 284.728 133.342L284.769 133.538ZM288.244 133.377C288.759 133.456 289.168 133.62 289.477 133.866C289.785 134.111 289.998 134.44 290.117 134.859L290.309 134.804C290.181 134.349 289.945 133.983 289.601 133.709C289.259 133.437 288.814 133.262 288.274 133.179L288.244 133.377ZM290.115 134.852C290.172 135.125 290.151 135.376 290.053 135.61C289.954 135.844 289.777 136.067 289.513 136.276L289.637 136.433C289.92 136.208 290.123 135.96 290.237 135.687C290.352 135.413 290.376 135.12 290.311 134.811L290.115 134.852ZM289.514 136.275C289.005 136.662 288.042 137.102 286.613 137.593L286.678 137.782C288.108 137.291 289.098 136.842 289.635 136.434L289.514 136.275ZM286.61 137.594C284.875 138.249 283.258 139.443 281.758 141.17L281.909 141.301C283.393 139.593 284.983 138.422 286.681 137.781L286.61 137.594ZM281.758 141.171C280.292 142.888 279.121 144.64 278.245 146.428L278.424 146.516C279.292 144.745 280.454 143.007 281.91 141.301L281.758 141.171ZM278.245 146.428C277.808 147.321 277.497 148.086 277.315 148.722C277.134 149.356 277.078 149.872 277.16 150.263L277.356 150.222C277.284 149.878 277.33 149.399 277.508 148.777C277.685 148.156 277.99 147.403 278.424 146.516L278.245 146.428ZM277.16 150.263C277.202 150.464 277.292 150.62 277.442 150.71C277.591 150.798 277.778 150.81 277.99 150.766L277.949 150.57C277.764 150.609 277.634 150.591 277.545 150.538C277.458 150.486 277.391 150.388 277.356 150.222L277.16 150.263ZM277.99 150.766C278.633 150.631 279.446 150.061 280.424 149.089L280.283 148.947C279.306 149.918 278.53 150.448 277.949 150.57L277.99 150.766ZM280.425 149.088C281.373 148.122 282.418 147.008 283.559 145.746L283.411 145.612C282.271 146.872 281.228 147.984 280.282 148.948L280.425 149.088ZM283.561 145.744C284.995 144.072 286.471 142.519 287.987 141.085L287.849 140.94C286.328 142.379 284.848 143.937 283.409 145.614L283.561 145.744ZM287.987 141.085C289.494 139.623 290.846 138.776 292.042 138.525L292.001 138.33C290.75 138.592 289.366 139.469 287.848 140.941L287.987 141.085ZM292.042 138.525C292.851 138.356 293.518 138.558 294.057 139.131C294.604 139.711 295.026 140.678 295.313 142.048L295.509 142.006C295.218 140.623 294.787 139.614 294.203 138.994C293.613 138.368 292.874 138.146 292.001 138.33L292.042 138.525ZM295.313 142.048C295.472 142.807 295.597 143.703 295.686 144.735L295.885 144.718C295.796 143.68 295.67 142.776 295.509 142.006L295.313 142.048ZM295.686 144.734C295.777 145.931 295.919 146.992 296.113 147.915L296.309 147.873C296.117 146.961 295.976 145.91 295.885 144.719L295.686 144.734ZM296.113 147.915C296.57 150.095 297.324 151.626 298.388 152.483L298.513 152.327C297.502 151.513 296.762 150.036 296.309 147.873L296.113 147.915ZM298.389 152.484C299.489 153.339 301.005 153.552 302.918 153.151L302.876 152.955C300.996 153.349 299.548 153.131 298.512 152.326L298.389 152.484ZM302.918 153.151L303.239 153.083L303.198 152.888L302.876 152.955L302.918 153.151ZM303.245 153.082C308.359 151.656 313.648 148.801 319.113 144.521L318.99 144.364C313.54 148.632 308.273 151.473 303.191 152.889L303.245 153.082ZM319.113 144.521C324.568 140.213 329.041 135.934 332.531 131.684L332.377 131.557C328.898 135.793 324.436 140.063 318.989 144.364L319.113 144.521ZM332.532 131.682L333.895 129.96L333.738 129.835L332.375 131.558L332.532 131.682ZM333.895 129.96C335.233 128.274 336.267 127.054 336.998 126.297L336.854 126.158C336.116 126.923 335.077 128.149 333.738 129.835L333.895 129.96ZM337 126.295C337.719 125.514 338.448 125.053 339.186 124.898L339.145 124.702C338.353 124.868 337.589 125.359 336.853 126.16L337 126.295ZM339.186 124.898C339.661 124.798 340.206 124.792 340.824 124.883L340.853 124.685C340.218 124.592 339.648 124.596 339.145 124.702L339.186 124.898ZM340.821 124.883C341.057 124.924 341.236 125.004 341.365 125.118C341.494 125.231 341.58 125.382 341.621 125.578L341.817 125.537C341.768 125.304 341.662 125.113 341.497 124.968C341.333 124.824 341.117 124.732 340.855 124.686L340.821 124.883ZM341.621 125.578C341.704 125.973 341.592 126.501 341.259 127.171L341.438 127.26C341.778 126.576 341.913 125.998 341.817 125.537L341.621 125.578ZM341.264 127.161C336.104 135.103 330.299 141.79 323.85 147.225L323.978 147.378C330.444 141.929 336.262 135.226 341.432 127.27L341.264 127.161ZM323.85 147.225C317.4 152.661 310.959 156.37 304.527 158.356L304.586 158.548C311.049 156.551 317.513 152.827 323.978 147.378L323.85 147.225ZM304.528 158.356C303.809 158.571 303.115 158.748 302.445 158.889L302.486 159.084C303.162 158.943 303.862 158.764 304.585 158.548L304.528 158.356ZM332.569 160.046L332.578 159.946L332.572 159.946L332.569 160.046ZM331.251 159.7L331.153 159.721L331.159 159.749L331.179 159.769L331.251 159.7ZM331.393 157.18L331.295 157.162L331.294 157.163L331.393 157.18ZM332.376 153.19L332.281 153.159L332.28 153.161L332.376 153.19ZM333.577 147.957L333.677 147.957L333.677 147.912L333.643 147.882L333.577 147.957ZM330.477 144.823L330.4 144.888L330.401 144.888L330.477 144.823ZM329.089 137.068L328.997 137.028L328.995 137.034L329.089 137.068ZM331.682 137.099L331.639 137.189L331.639 137.189L331.682 137.099ZM334.204 138.39L334.155 138.477L334.156 138.477L334.204 138.39ZM336.429 139.407L336.425 139.507L336.448 139.508L336.468 139.499L336.429 139.407ZM338.818 134.356L338.91 134.393L338.911 134.392L338.818 134.356ZM343.6 123.821L343.686 123.873L343.686 123.872L343.6 123.821ZM348.451 122.516L348.398 122.601L348.405 122.606L348.414 122.609L348.451 122.516ZM349.071 126.841L349.166 126.872L349.166 126.871L349.071 126.841ZM346.587 133.492L346.494 133.456L346.494 133.456L346.587 133.492ZM343.963 140.844L344.058 140.876L344.058 140.874L343.963 140.844ZM344.38 145.115L344.371 145.215L344.373 145.215L344.38 145.115ZM356.351 139.394L356.414 139.472L356.414 139.472L356.351 139.394ZM375.23 120.49L375.313 120.546L375.313 120.546L375.23 120.49ZM364.754 140.409L364.685 140.336L364.685 140.336L364.754 140.409ZM355.312 148.138L355.256 148.055L355.255 148.055L355.312 148.138ZM339.834 151.529L339.863 151.433L339.768 151.405L339.739 151.5L339.834 151.529ZM338.639 155.42L338.734 155.451L338.735 155.449L338.639 155.42ZM334.625 159.8C333.899 159.952 333.217 160.001 332.578 159.947L332.561 160.146C333.222 160.202 333.924 160.151 334.666 159.996L334.625 159.8ZM332.572 159.946C332.239 159.937 331.969 159.904 331.759 159.849C331.549 159.794 331.408 159.718 331.323 159.631L331.179 159.769C331.299 159.894 331.48 159.983 331.709 160.043C331.938 160.103 332.225 160.137 332.567 160.146L332.572 159.946ZM331.349 159.679L331.32 159.542L331.125 159.583L331.153 159.721L331.349 159.679ZM331.32 159.542C331.282 159.357 331.274 159.071 331.302 158.676C331.33 158.283 331.393 157.79 331.492 157.196L331.294 157.163C331.196 157.76 331.131 158.26 331.103 158.661C331.074 159.061 331.08 159.37 331.125 159.583L331.32 159.542ZM331.492 157.197C331.694 156.042 332.021 154.716 332.472 153.219L332.28 153.161C331.828 154.663 331.499 155.997 331.295 157.162L331.492 157.197ZM332.471 153.22C333.263 150.756 333.668 148.998 333.677 147.957L333.477 147.956C333.468 148.962 333.073 150.693 332.281 153.159L332.471 153.22ZM333.643 147.882C332.509 146.878 331.479 145.837 330.553 144.758L330.401 144.888C331.334 145.974 332.37 147.022 333.511 148.031L333.643 147.882ZM330.553 144.759C329.627 143.658 329.029 142.459 328.757 141.161L328.561 141.202C328.841 142.535 329.455 143.763 330.4 144.888L330.553 144.759ZM328.757 141.161C328.505 139.96 328.644 138.608 329.183 137.102L328.995 137.034C328.447 138.566 328.3 139.956 328.561 141.202L328.757 141.161ZM329.181 137.108C329.277 136.889 329.428 136.764 329.639 136.72L329.597 136.524C329.318 136.582 329.117 136.755 328.997 137.028L329.181 137.108ZM329.639 136.72C330.094 136.624 330.756 136.77 331.639 137.189L331.725 137.008C330.834 136.586 330.121 136.414 329.597 136.524L329.639 136.72ZM331.639 137.189C332.487 137.585 333.325 138.014 334.155 138.477L334.252 138.302C333.419 137.837 332.576 137.406 331.724 137.008L331.639 137.189ZM334.156 138.477C334.77 138.812 335.264 139.065 335.638 139.237C335.825 139.322 335.983 139.388 336.112 139.433C336.239 139.477 336.345 139.504 336.425 139.507L336.433 139.308C336.384 139.306 336.301 139.287 336.178 139.244C336.057 139.202 335.905 139.139 335.721 139.055C335.353 138.886 334.864 138.636 334.252 138.302L334.156 138.477ZM336.468 139.499C336.529 139.474 336.586 139.417 336.64 139.351C336.696 139.281 336.759 139.188 336.829 139.073C336.967 138.842 337.137 138.515 337.336 138.093C337.736 137.249 338.26 136.015 338.91 134.393L338.725 134.319C338.075 135.94 337.552 137.169 337.155 138.008C336.957 138.428 336.791 138.748 336.657 138.97C336.59 139.081 336.533 139.165 336.485 139.224C336.434 139.287 336.402 139.31 336.39 139.316L336.468 139.499ZM338.911 134.392C340.795 129.528 342.387 126.023 343.686 123.873L343.514 123.77C342.206 125.935 340.609 129.453 338.724 134.32L338.911 134.392ZM343.686 123.872C344.388 122.677 345.104 122.027 345.826 121.876L345.785 121.68C344.978 121.85 344.223 122.562 343.514 123.771L343.686 123.872ZM345.826 121.876C346.523 121.73 347.377 121.961 348.398 122.601L348.504 122.432C347.465 121.78 346.556 121.518 345.785 121.68L345.826 121.876ZM348.414 122.609C349.015 122.85 349.363 123.242 349.477 123.786L349.673 123.745C349.543 123.126 349.142 122.685 348.488 122.423L348.414 122.609ZM349.477 123.786C349.538 124.074 349.53 124.469 349.447 124.977C349.364 125.483 349.207 126.093 348.976 126.81L349.166 126.871C349.399 126.149 349.559 125.528 349.644 125.009C349.729 124.491 349.741 124.068 349.673 123.745L349.477 123.786ZM348.976 126.809C348.506 128.214 347.679 130.429 346.494 133.456L346.68 133.529C347.865 130.502 348.694 128.283 349.166 126.872L348.976 126.809ZM346.494 133.456C345.416 136.238 344.541 138.691 343.867 140.814L344.058 140.874C344.73 138.756 345.604 136.308 346.68 133.528L346.494 133.456ZM343.868 140.813C343.516 141.877 343.26 142.719 343.101 143.339C343.022 143.648 342.966 143.903 342.935 144.104C342.904 144.3 342.894 144.457 342.916 144.56L343.112 144.519C343.098 144.455 343.102 144.331 343.132 144.135C343.162 143.943 343.216 143.695 343.295 143.388C343.452 142.776 343.706 141.938 344.058 140.876L343.868 140.813ZM342.916 144.56C342.958 144.761 343.125 144.904 343.365 145.005C343.606 145.107 343.943 145.175 344.371 145.215L344.389 145.016C343.97 144.977 343.656 144.911 343.442 144.821C343.227 144.73 343.134 144.625 343.112 144.519L342.916 144.56ZM344.373 145.215C345.195 145.269 346.191 145.173 347.358 144.928L347.317 144.732C346.16 144.975 345.184 145.068 344.386 145.015L344.373 145.215ZM347.358 144.928C348.414 144.706 349.696 144.138 351.202 143.229C352.71 142.32 354.447 141.067 356.414 139.472L356.288 139.317C354.325 140.909 352.596 142.155 351.099 143.058C349.601 143.961 348.341 144.517 347.317 144.732L347.358 144.928ZM356.414 139.472C360.34 136.252 364.11 132.825 367.725 129.19L367.583 129.049C363.973 132.679 360.208 136.101 356.287 139.317L356.414 139.472ZM367.725 129.19C371.338 125.558 373.869 122.676 375.313 120.546L375.148 120.433C373.714 122.547 371.194 125.419 367.583 129.049L367.725 129.19ZM375.313 120.546C376.043 119.469 376.709 118.64 377.313 118.056C377.918 117.47 378.451 117.138 378.913 117.041L378.872 116.845C378.356 116.954 377.789 117.316 377.174 117.912C376.556 118.51 375.881 119.351 375.148 120.433L375.313 120.546ZM378.913 117.041C379.4 116.939 379.799 117.065 380.126 117.419C380.459 117.781 380.722 118.386 380.903 119.251L381.099 119.21C380.915 118.332 380.643 117.685 380.273 117.284C379.897 116.876 379.426 116.729 378.872 116.845L378.913 117.041ZM380.903 119.251C380.964 119.541 380.924 119.93 380.771 120.427C380.618 120.922 380.354 121.514 379.979 122.205C379.228 123.586 378.034 125.349 376.394 127.496L376.553 127.617C378.195 125.467 379.396 123.695 380.154 122.301C380.534 121.603 380.803 120.998 380.962 120.486C381.12 119.975 381.17 119.548 381.099 119.21L380.903 119.251ZM376.394 127.496C373.117 131.788 369.214 136.068 364.685 140.336L364.822 140.482C369.358 136.207 373.268 131.919 376.553 127.617L376.394 127.496ZM364.685 140.336C361.25 143.578 358.107 146.15 355.256 148.055L355.367 148.221C358.23 146.308 361.381 143.728 364.823 140.482L364.685 140.336ZM355.255 148.055C352.444 149.983 349.746 151.215 347.162 151.757L347.204 151.953C349.819 151.404 352.541 150.158 355.368 148.22L355.255 148.055ZM347.162 151.757C344.732 152.267 342.3 152.159 339.863 151.433L339.806 151.625C342.274 152.36 344.74 152.47 347.204 151.953L347.162 151.757ZM339.739 151.5L338.544 155.39L338.735 155.449L339.93 151.558L339.739 151.5ZM338.544 155.389C338.081 156.823 337.572 157.858 337.021 158.504L337.173 158.634C337.749 157.958 338.268 156.894 338.734 155.451L338.544 155.389ZM337.021 158.504C336.475 159.145 335.679 159.579 334.625 159.8L334.666 159.996C335.752 159.768 336.591 159.316 337.173 158.634L337.021 158.504Z" fill="black"/>
</svg>
